<mxfile host="Electron" agent="Mozilla/5.0 (Macintosh; Intel Mac OS X 10_15_7) AppleWebKit/537.36 (KHTML, like Gecko) draw.io/28.0.4 Chrome/138.0.7204.97 Electron/37.2.1 Safari/537.36" version="28.0.4">
  <diagram name="main-diagram" id="w4l1ssGNOrZLDIWIQKss">
    <mxGraphModel dx="865" dy="545" grid="1" gridSize="10" guides="1" tooltips="1" connect="1" arrows="1" fold="1" page="1" pageScale="1" pageWidth="850" pageHeight="1100" math="0" shadow="0">
      <root>
        <mxCell id="0" />
        <mxCell id="1" parent="0" />
        <mxCell id="sAz0puc__kFBI9K-MMxM-22" style="edgeStyle=orthogonalEdgeStyle;rounded=1;sketch=1;hachureGap=4;jiggle=2;curveFitting=1;orthogonalLoop=1;jettySize=auto;html=1;entryX=0;entryY=0.5;entryDx=0;entryDy=0;fontFamily=Schoolbell;" parent="1" source="sAz0puc__kFBI9K-MMxM-1" target="sAz0puc__kFBI9K-MMxM-6" edge="1">
          <mxGeometry relative="1" as="geometry" />
        </mxCell>
        <mxCell id="sAz0puc__kFBI9K-MMxM-23" style="edgeStyle=orthogonalEdgeStyle;rounded=1;sketch=1;hachureGap=4;jiggle=2;curveFitting=1;orthogonalLoop=1;jettySize=auto;html=1;exitX=1;exitY=0.5;exitDx=0;exitDy=0;entryX=0;entryY=0.5;entryDx=0;entryDy=0;fontFamily=Schoolbell;" parent="1" source="sAz0puc__kFBI9K-MMxM-1" target="sAz0puc__kFBI9K-MMxM-5" edge="1">
          <mxGeometry relative="1" as="geometry" />
        </mxCell>
        <mxCell id="sAz0puc__kFBI9K-MMxM-24" style="edgeStyle=orthogonalEdgeStyle;rounded=1;sketch=1;hachureGap=4;jiggle=2;curveFitting=1;orthogonalLoop=1;jettySize=auto;html=1;exitX=1;exitY=0.5;exitDx=0;exitDy=0;fontFamily=Schoolbell;" parent="1" source="sAz0puc__kFBI9K-MMxM-1" target="sAz0puc__kFBI9K-MMxM-7" edge="1">
          <mxGeometry relative="1" as="geometry" />
        </mxCell>
        <mxCell id="sAz0puc__kFBI9K-MMxM-25" style="edgeStyle=orthogonalEdgeStyle;rounded=1;sketch=1;hachureGap=4;jiggle=2;curveFitting=1;orthogonalLoop=1;jettySize=auto;html=1;exitX=1;exitY=0.5;exitDx=0;exitDy=0;entryX=0;entryY=0.5;entryDx=0;entryDy=0;fontFamily=Schoolbell;" parent="1" source="sAz0puc__kFBI9K-MMxM-1" target="sAz0puc__kFBI9K-MMxM-8" edge="1">
          <mxGeometry relative="1" as="geometry" />
        </mxCell>
        <mxCell id="sAz0puc__kFBI9K-MMxM-26" style="edgeStyle=orthogonalEdgeStyle;rounded=1;sketch=1;hachureGap=4;jiggle=2;curveFitting=1;orthogonalLoop=1;jettySize=auto;html=1;exitX=1;exitY=0.5;exitDx=0;exitDy=0;entryX=0;entryY=0.5;entryDx=0;entryDy=0;fontFamily=Schoolbell;" parent="1" source="sAz0puc__kFBI9K-MMxM-1" target="sAz0puc__kFBI9K-MMxM-9" edge="1">
          <mxGeometry relative="1" as="geometry" />
        </mxCell>
        <mxCell id="sAz0puc__kFBI9K-MMxM-1" value="AI Hub" style="rounded=1;whiteSpace=wrap;html=1;fontFamily=Schoolbell;sketch=1;curveFitting=1;jiggle=2;verticalAlign=top;spacingTop=16;fontSize=30;" parent="1" vertex="1">
          <mxGeometry x="260" y="50" width="245" height="220" as="geometry" />
        </mxCell>
        <mxCell id="sAz0puc__kFBI9K-MMxM-27" value="" style="group;fontFamily=Schoolbell;" parent="1" vertex="1" connectable="0">
          <mxGeometry x="90" y="90" width="125" height="40" as="geometry" />
        </mxCell>
        <mxCell id="sAz0puc__kFBI9K-MMxM-28" value="Editors/Copilot" style="rounded=1;whiteSpace=wrap;html=1;fontFamily=Schoolbell;sketch=1;curveFitting=1;jiggle=2;" parent="sAz0puc__kFBI9K-MMxM-27" vertex="1">
          <mxGeometry width="125" height="40" as="geometry" />
        </mxCell>
        <mxCell id="sAz0puc__kFBI9K-MMxM-32" value="" style="group;fontFamily=Schoolbell;" parent="1" vertex="1" connectable="0">
          <mxGeometry x="90" y="190" width="125" height="40" as="geometry" />
        </mxCell>
        <mxCell id="sAz0puc__kFBI9K-MMxM-33" value="API Requests" style="rounded=1;whiteSpace=wrap;html=1;fontFamily=Schoolbell;sketch=1;curveFitting=1;jiggle=2;" parent="sAz0puc__kFBI9K-MMxM-32" vertex="1">
          <mxGeometry width="125" height="40" as="geometry" />
        </mxCell>
        <mxCell id="sAz0puc__kFBI9K-MMxM-34" style="edgeStyle=orthogonalEdgeStyle;rounded=1;sketch=1;hachureGap=4;jiggle=2;curveFitting=1;orthogonalLoop=1;jettySize=auto;html=1;entryX=0;entryY=0.5;entryDx=0;entryDy=0;fontFamily=Schoolbell;" parent="1" source="sAz0puc__kFBI9K-MMxM-28" target="sAz0puc__kFBI9K-MMxM-1" edge="1">
          <mxGeometry relative="1" as="geometry" />
        </mxCell>
        <mxCell id="sAz0puc__kFBI9K-MMxM-36" style="edgeStyle=orthogonalEdgeStyle;rounded=1;sketch=1;hachureGap=4;jiggle=2;curveFitting=1;orthogonalLoop=1;jettySize=auto;html=1;exitX=1;exitY=0.5;exitDx=0;exitDy=0;fontFamily=Schoolbell;" parent="1" source="sAz0puc__kFBI9K-MMxM-33" target="sAz0puc__kFBI9K-MMxM-1" edge="1">
          <mxGeometry relative="1" as="geometry" />
        </mxCell>
        <mxCell id="sAz0puc__kFBI9K-MMxM-37" value="Plugins ..." style="rounded=0;whiteSpace=wrap;html=1;sketch=1;hachureGap=4;jiggle=2;curveFitting=1;fontFamily=Schoolbell;" parent="1" vertex="1">
          <mxGeometry x="398.82" y="190" width="80" height="30" as="geometry" />
        </mxCell>
        <mxCell id="3TXwSt35AcdhHn5f4g_F-1" value="Auto Routing" style="rounded=0;whiteSpace=wrap;html=1;sketch=1;hachureGap=4;jiggle=2;curveFitting=1;fontFamily=Schoolbell;" parent="1" vertex="1">
          <mxGeometry x="303.82" y="190" width="80" height="30" as="geometry" />
        </mxCell>
        <mxCell id="3TXwSt35AcdhHn5f4g_F-2" value="Proxy" style="rounded=0;whiteSpace=wrap;html=1;sketch=1;hachureGap=4;jiggle=2;curveFitting=1;fontFamily=Schoolbell;" parent="1" vertex="1">
          <mxGeometry x="398.82" y="145" width="80" height="30" as="geometry" />
        </mxCell>
        <mxCell id="3TXwSt35AcdhHn5f4g_F-4" value="Logging" style="rounded=0;whiteSpace=wrap;html=1;sketch=1;hachureGap=4;jiggle=2;curveFitting=1;fontFamily=Schoolbell;" parent="1" vertex="1">
          <mxGeometry x="303.82" y="145" width="80" height="30" as="geometry" />
        </mxCell>
        <mxCell id="sAz0puc__kFBI9K-MMxM-9" value="Ollama" style="rounded=1;whiteSpace=wrap;html=1;fontFamily=Schoolbell;sketch=1;curveFitting=1;jiggle=2;container=0;" parent="1" vertex="1">
          <mxGeometry x="580.01" y="240" width="170" height="40" as="geometry" />
        </mxCell>
        <mxCell id="sAz0puc__kFBI9K-MMxM-10" value="" style="shape=image;verticalLabelPosition=bottom;labelBackgroundColor=default;verticalAlign=top;aspect=fixed;imageAspect=0;image=data:image/png,iVBORw0KGgoAAAANSUhEUgAAALUAAAEACAYAAAD1IzfbAAAAAXNSR0IArs4c6QAAAERlWElmTU0AKgAAAAgAAYdpAAQAAAABAAAAGgAAAAAAA6ABAAMAAAABAAEAAKACAAQAAAABAAAAtaADAAQAAAABAAABAAAAAAD/aCBLAAAjtklEQVR4Ae2dCbQlRXnHGVkGZN93GGAAQbawCIMKDw8uuKCiEdQYB4nHLKgkJ0gkRsbjFldCFvW4ADEoUTAQF8QgMKCDigSRVWaAGdZRZN9hgOT/u7x+9u3XXV31dfV9fe+t75xvum9Vfdu//reX6n53VlopSUIgIZAQSAgkBBICCYGEQEIgIZAQSAgkBBICCYGEQEIgIZAQSAgkBBICCYGEQEIgIZAQSAgkBBICCYGEQEIgIZAQSAgkBBICCYGEQEIgIZAQSAgkBBICCYGEQEKgiwjM6mJSyom8dpC+aHK7srbIU9LfSH8mXS5N0i4Cm8v9POkLpKtNhnpG25ull09u/2+yPW0qEFhP7cdLr5MCVpU+qz6I/WfS1aVJ4iEAnuAKvuBcNQe0M0/MF/OWpIAAR+L3Se+VukAs61smmyOlXT3rKLWhEPADx2XSMpxdbcwb85edUbU73rKVyr9E6gLNp+8s+UhHDBuXwA38fHB2jWEemc+xlr1U/Z1SF1AhfTfI13ZjjWh48eAFbiE4u8Yyn8zrWMo+qvo+qQsgS98d8rnTWCIaXjQ4gZcFZ5cN88r8jpXMVbW/k7qAadJ3i3xvMVaIhhcLPuDUBGeXLfPLPI+FrKkqr5a6AInR93PFmD0WiIYXCS7gEwNnlw/mmfkeefmyKnQBEbPvlJFH01YguMTE2eWL+R5peaWqq1v7dAEU2seDgkNHGtHw4sADXEKxtI5nvpn3kRQW9W+SWsGx2hFzjZFENLwocJipOWD+R04+oIqsxGxq9+GRQ9NWEDg0xdJqz/yPlLC4b3laaAWwaPeQ4m86UoiGF0P94FDEZlCfmX940Lo8r/UIzwU4VpsNBhSrLMzaahy5I0VZoY426geHmRLmHx6MhHAt9Vup9YjwqGzfJT1BuqKBn0dku7F0HIW6qd86B+AO/swD82H1Aw9G4tr6nQ1AeFq2r5Fm8g7tNFk9+YfM0ZhtqdtKRPAG90yYD+bF6g8+DL0sUgVWAD5WUv1nG/jjvYRVS3yOchP1Urd1DsC7KMyL1d+iorNh+8y7BdYjK38MUPZEkLbrpVZQ3yjbcRLqtWIFzlVzwPxY/MKHoX43Z4GxcMA6QlolLOZbAMXm3CqnI9pOvVaswLlKmB+r3wVVToeh/Rpj4VfLrm5l5iKj7ydlt6F0HIQ6qddCPvB1CfPDPFl8w4uhlLnK2lIwNtxl1wmPe9v0Xxd/GPrB0YoR+NZJE//wY+iEP++xAPqA7Hze7JqlcdYzwfeGDk1bwtRpmQNwBd86YZ6YL0sM+DF0YgX0qwGVvldjLYA+JrvnB8QZxqHUR50WfMDVV5gvS4yhO7CsokIfNBb7cl80NY6HCtZrxlcFxBnGodRnIRt4hjykYr4sceAHPBka2UeZWgrlz4BWDazyPGOszwTGGbbh1GeZA/AMEeaLebPEgifRhTvYNuRAo9MLZMcj2RA5J2RwbuxEbn8Ud631heLJfDFvFrHyxBmrLVLv54xa3fnj6q7Knh+oh6NEqOwlg3VCjYZkPHVRX6iAI3iGimXeiGHlSWh+UcZfJy+W05H1SZN1vfSQKNV2zwl1WfAHR4swb5Z48CS6tHGk5i0sCznvkd0SY4UXGu2G6kgRUKO1LiuOzBvzFyrwJPpbe22Q+gVK1HJX+0vZ8W23yE8tRrLZ12jXdTNrXVYcmTfmL1TgCXyJKhby1SVgOUrj88o6x47+yxx9rq7dXJ2efTyk2FrKnfyuUurn8+ZS/iZwk8mtNr0v7e+1Zf2YLb+NcYuUl4N+LeX0z3vPTcValxVH8mX+DjMkDl5XGewqTdog9Y6V0dwdTKpVlsvwNuk2gQ7majxvobE2GyLbazAv+7xM+hLpZlIf4QsAyZE5vX/7/3laH6+RLpRy88WWL0CIUA91hQr4gaNVrPNn5Ys1T5Pd12RluWnYwxTtD0bfM8bl6Ooju2jQR6SQzlKfxeZRxfov6duka0l9hHosscCviTB/lrjwpfPCmmVocc/KhlN1E/m4jEPjMv71jqD8Td97pJdLLb5j2jysHE6VzpNyxK8S6rHEBb8mwvwxj6GxrWvclbk+r7LH3rGFwfR3snncYJc3sS4PcSlRlG3V8Hnp7dIvSa2rCTKNJhypj5Zy3cuXjKP3qtKilNVTHFP22Ypf5ov5Yx5DxcIXZ4yukHqZM0u/zsV+w6aN4qYuEwjB6RBffy1dV9pFYXXjG1JuMI+R5smdr0dd3mLFLx9gWf6D5350UnvG9R7GL8mHnn4Y/5/eEaoHrmeMfbbsNpb+s5QbRkv+M21zo/J+k5TLEuqx5LOR7JoK82iJHfV/IIi9+rG5ERWWt5rKA3LwoDT06PpS2UCK9aXDKiyLQeaFUsscgNs90qZinUdyvqNp8Mw+NqlXyxwHbu8NHF81/C51hJI6W2Kr8jlM7RPGZMEthljn0cqb0pxjX1P7rtcWk7m72GD83GSd1RhyJMxi4WadRytvSsGPTWrrNy70AUNpMWq8s6ojtTsRiIWbdR6tvCktKjapS4N4ND7kMcZnCNfVScIRiIVbrHkMryBn0RVS35fLqcluLD9NchhG21i4xfLTCMPYN4qNkolgbD39RQjd54JlLW6+lkkflfJQgqdta0o3nNQdJj9rM+PSFdyiADFqpLYuKTUFk9PuxdJLpb+QXi3lsbZLWFPeRsrTynnSQ6R7SWkftMwUbq3UOWqk5gg5KOFUy9rwWVLI/JQ0RMj11knFD7KllHc3jpTy9t+gLg8HiZvKalcGBVq7VQzW+yKFe5sUAvKyE6+IhhJaJqXCKsQXpAdLd5J+Wmpd+5XpeEpXSM3bcDGk6UtRVTlwJPu+9EApR9AzpU9I25Sb5fwE6bbS46Sxlt3kaprEwi3WPE5LMKShK6Tm5imGWBf/XbF/qk7I/Drpz1wDW+rjRvMU6Y5SSB5r+U2upiQWbrHmcSoxy05sUj9jSUI2qxrtimYxrw2Xy/nbpQdJf14MNAOfOZpyObKz9HRpzFpj+bLOo5U3gmG6xCY1RLCI5SWcsjh7lzUa2s6QzW7Sb0pjTbghjVITjqpHS18pvb10RHhjLNys82jlTXilBoutZQMJQvVkQ6yiyTpquN8QO58rS3PcBA6L8GbhOdJ8DZZ9cAO/psI8WuLDm84KS4SWojgyNpUPyoEldmazRPa7Nk1iBuxZ1z5Ryik8q8WyBb+mwjxaYsObaBLVmbJ6WspDh9C7YN9vKjciu0s5zW0l5Qkdk8rTur+UWoVr5sOlw/gQAhJ9Qnqz9N+ls6UWYYVlNSmXpPjkBvUOKZcG10jvldaJ7zzm/cAXeBNNIERsWSyH3KmHyDIN3m7SYC1tebI2VzpHiq89Jvfpiy2XyCErG4A77MJ1Npcja7RQCL9HskzK01LOauzfJL1KSh+yVDqHnQDBF2vynZaLlR3f9BDlm8qR4kIpR4gQ2yZjeaQdelaRSafltcpuhbQJLiG23Id8RUpc5jHElrEXSzsvZyjD0MJmYvwy5blp59G0JfhXMpsJTC0x4UtUib2kR3JLo2bYjjOOZEdKeXtuFIVH7dHJ0hJQ0fnSBqm5Yem6fFQJcukxqsIR873S24agwGHgy0ovFpCW09CgbBYqv1WGYLJjpPhSOXlKOihsLXHgS+eFZTYe6VoKbNuGvOZIx0k+q2LbxtXqn/mAL0MhZypLa6Ft2n1uKNCLm+R6cscTwzZxtfqGJ9GljWvqdZWl9R2A6AXmHN6jfR5SjJs8oIK5h+iiwJW1uphYPiee+F0htX5z27Q7Pp/omO3PVr13dHReuGGHN52UTZTVr6VtEtPqm2u3jTuJ2uCS+khH54Y5hTfwp1OygbK5RmolXdt23+gUWjOTzFYK2+WVkGuVHzzqhPAN+6W0bWJa/QPWtp1AauaTOFYpPCm1Ytm2HTxqfMSe1RBnyPJD6S4N/bjMAXKJ9EopBL1FulzK00AuK1aX8ltsm0r5LY3tpStLeWrI2eN06cPSJM8hsK82b5aCF8KNJPgulbJKAq7IRlKudZnjnaW8VIYtN3dtyg1yfpj01jaDVPnmzarbpZAutvJS07el75BG/fFA+UtiR4CDxX7Sk6Rt3j/Bq4G/uUfAO6Wxycxrje+Rtn00UIgkDRHgLL+X9IvSR6SxuQC/BkZs1qCXRi6CZcDXSttYN5fbJC0jwKXKx6Vc5sUkNzxr/ZkHR9CrIibOt/FPpInMAmEEBAKeLuUvkWKRG761duaGeN+PlCxFf0W6njTJ6CFwiEri7btYxIZ3rRz4Phkpyfvk5w3SJKONwDoqj3e6YxEb/kWVl8tbjFMKS2zbR80sOesyAtxM8l43y6tNyQ3/4GEU4fFyjPcGLpCf1q6NolSanLSFwKvkOMZNJDyM8rrDd+So6bfsXPmYLU0yvggcqNLvlzblEnxsJBOybprEd+VjtUZZJONRQeAAFfKQtCmnJqyAQEQeWTZJ4CeyX8OaQLIbSQS4Lm76YhW8NB0o+cWjJoRmSYdF+SQJgSICx6ihCbewDf5FLv5ujBdbrIF5d2NPaZKEQBUCPF638gs7+Bn0941/1zDgu2WfJCHgQoC3K3la2ITY8NRLuAb+vdQajBtD1ieTJATqENhdA56QWrl2V12ArL/J9c4DcrJl5ihtEwIeCJykMVZSPy7b2qVijrD/2yDIcbJNkhAIQYDLkCVSK7HfXhdsnwbOb5StaZmlLqnUP/IIHKEKraS+uA6dUxo4P7LOeepPCFQgwBXCz6UWYj8ju+0q/PZ+X2650fF1smvl1cCqZFP7yCHwGlVkITU2lasgEw2cvku2SRICTRDgaM1bnBZi/7Iq8OeMDln+S4/Cq1BN7SEI/LkGW0jNa6n8rsk04RLC4vDkaZ5SQ0LAhgB/WGB9RZWl6D5hbdn6RwB/1OcpfUgINEPA+tcy3yyGPUoNlqP0YtlxLZQkIRALgcPlyMLF22XX42K2YjHPmBGPxEkgSUIgFgI/lqPHDM64pt4au4zUPHSxyPkWo2STEHAgAKEvdfS7uno8htQcsvdwjazoe1Ltl1X0peaEQBMEFhqNeUGqd6TmB0jWNjhhTdFymjCESiZjhsAiY70vxI4j9Y5GB7z4lCQh0AYC/Pgkq3Gh0uMypN421HJy/LVGu2SWEKhDgLXqZXWDSvq3oQ1Slz6JKTEoNvFWXpKEQFsIsFwcKhvKYOVV9I/1B2aWhkYc0fHcaO8g5c57VymnQB5moatKN53ccgDhlLpCyt/Xsb1zUpdoe72US7rsN+i0O9ayzFj9FpB6E6MxEzJI4cu3v3QLKWvjxOdFlgelgxbWQ/np4UOlB0l9/2oeYvOXGr3TpLZ8GYpyjxoulbJeyw8j8lBh0ALW+0n5YvKl5c+mfiEdJNa/VTyLcCBZ6TQpJAlRjjKDkr0U6FvSsr9lo42+3aRtywYKcKyUZUyOuCF4WccSh3jEJX7bAo51WDMfg5B3K4gFtwNJ7jSD8W0Ytiwc1T4mfVpaVxzk5k/Jeo9JtY0pLBN9VcryZV0ebfYTnzx6y1baxhRwA7+yA0exJuaDeWF+2pT5cl6M7fN5gqROMxgvxbBl+YL8+xSRH/OhiDlxfXy2lL+syMeY6X3yIS/yiyXgFloX89OmzJfz0JwYPyE1kfpWDFuUo+TbUhCn61c2zIs76C9KOSJZchiUDfmRJ/k2EfCyXk4xT23JfDm2YDlBQqcZjDlNtSUry/FNUktB2FwvtZ4a3yrbuxvEtubcxI58ydsi4ARe1vjME/PVhlivqV9KMqdJLUWt0UYl8jnfmE++hkMCc+Nu/8wIcfM5DHqf/EOXZ8GpaZ7z5aMNOUlOLbnN5Zt6nzEjlntiC/mcGMEpS22+wh0/S4Ntnkp9c2kyjvypg3p8JQSnKp/Ml/XMWOWT9s1cnY6+Fauo817HAFfXdurk9BNTWBvdMYJD1rJ9hOvJb0v5M6Kmwg0crw5cJeWUvlTKWuud0uyadZb2IQAHBCYNDLnhY5kMMjY9lYPdIulbpD+S1okvTi4/xGTefuEaZOibY7DBZDmkZmHdIjvJ6AKLocPmxY6+2F1HyuHXpas1cAxpz5WeJ71E+pDUR24pGcQX62Dpq6VvkFqPVPjhjzf+VMqa8yCEeYtNar4socIB+imMXia1XLt8CePIskD+LLkUbT5bkxdHshXGWKw6nCM9TNr0yCoXpYJf/BOHeMX6fD5TH3W6BJx8fNWNWeAKYuhbWzaWpdQrs1hbaqcu6bL+KzIHEbcLjLkU83uzIyeuI580xIEkp0rnSgcpxCOu5UtIndRbJeBUxM7yeUFVAGP7wca8uJTsCdd5D0hDi+EwzzcqpnxAzkLzKI6nlrUqktpZ7fcbYvxYNm08yatIs7SZ+ORRrLfuM/VSd5mAk2XuizGZt5jyITkrxvD5fFI+iZ8Ynbwu7yTC/kuMeeQL5oFEmTxfjddI82Pr9nmB511SvvhdEPIgH/Kqyz3fT93UXybglR9r2WfeYspCObPk8cZ8Ep83Ool9Xf085fEbYy6A8Jh0O2mZ/KsaQ4C6WuMtNytlsWO3kRf5hdRD/WUCXuAW4is/lvli3mLJBnLEVUA+hu8+l9JTYr224u5/lSkvcXZeLze+ReTHPSu7oytSOEjt9OfHu/bP09jYl1YVqZmbyY88XXXk+6gfHMoE3ELwyftlvmIKueT9++4vLSaxsRosd5sEfE3RWYTP/yQfvsUwjgl5f0VcvnQhR7WzNb7JMl9FGq00kyf5+mIFDlUHIfALJTbzFFsulEPfevLjTi9L5Aqjs/8uc9awjdPZJ6Q+X7SnNe44R7xj1Jcv3rV/vsYOC6GzksmXvF115fvAo0rAETzz48v2mRfmJ+Zlh9yttJPUZ87LcnobDoqyQA1lg+vaAGFu0VmkzwfKDxNWBfS16puQVglHpZuldTXQf4N0XekwCnmTv0+d4FF1tKb2CSm4lvliHpgP5qUN4bq/LG5dG9fgU28rzspltqf2r8p9Dtn9qga/O8QgcCwJz5PuIeXI9IR00aRyyqwS7hXOqurMtbOeu7/017m2Ydtl/niqN9sj8T/WGC5bqoQj8IsndXVtIQ2XLj+T3ittQzaTU75wVas0rpgXqPMVZQMg+HXSum9FWT9Fc+romvxICZXlW2z7cKTEeUT9N9LTpF+WvlXKlzAvc/RhgZQxX5AeIo0l1FGsrewzuHRN/kUJleXq0+a6pFrphAaOz+0YSnzzqy5b8kDdqnEcjZrK5nKwWJr3zf6N0ldLIfzJ0iel+TGcaT4ijSHUQT15/2X74AI+XZFdlAgHxrJc69oekR2XX5VCoUXQ65zm+w+v9Dz4Dt8bxL+IlNoZ8pPHIr8Pce+u6d83Uh7Uk49dte88ukXKxccNlzoXe+ZcVsupPkG+0SDAnbKdumD3CdbiGJ86HlB8yzVcWdr3q7EMdN+2D5Y5NbRRD3XVxQWfLsixSqIuV1f/Pj5FMIgji8uRq4/LEL59My0+qx5e33LPQkIfXRcxPNEzjs8w6ir6L34Gn5kWbm6bPM28KKSAkCdVRbD4jD0PdGZK1lRgny8mqyOx5JtyVIaFTxu57hcrEfmhrrq4xASnmZJNFPg30ro8Xf2HhiT/Ig32IYUr4LXysX5I0Ihjd5UvV25ZX8ybpW0Uk9cGMt8hW+78Ywp1+cTnSDkTspGCXi/1ybFqzELZz5IGybc0usqhb/vXgyLGGzzhkXsb663cxS/xiJ3hx4HjZOnK0thCfVmcqu1E7KAe/iDiD6RVOfm0g9sBHrGmDZmjlkelPkGqxrB0NFc6aJlQwKqcsva2HrSwdHeKdEVNDjepv433ZuS2J9SX1Vq1nXhu6ED/3c0jr6p8s/b/aJLx30dI4P1NEjDaTnjkvdDo29fsSEcOrBKt4evIOG6h7DISVG0njL6bmMGHqnx82u+T/eauBOpWKT4j46ZHtKq/unDlNYi+LVoO8nuH/+Xqe9zRH6Or7fqsOTblw/EKDH6VUkdqnvK8U8rWKnz7Bi1cc9XJ1hrQxrVsFpfTbJVwI9tmbHxTX5344FTnI7S/CR9+pWCn1gWsIzX2T0iD7zJzgWdiPfSOXPyqXR4pQ662ZG+HYy49XKR3mHp1UZfPo38fnLwCBgxqwgcwi/KOUdP1V1YEBi0cqfgy1l2jHddiYrzV5or/1hZjU5crNn3g0+bZoqo8+MAZoi6/qn742EheIGufl4KqEuDp4kzJ5QpclVfWflmLyS2tiT+/xdjUldVYtQWfmRJ4UZVXXTt8hJdm+Zos64JU9T8o2znmyM0NPycXVbnl212XCU2y+G5N/Ikmzh221JOvr2offGZK5igw/KjKra4dXppkM1n5nMKrEnifKWo8Ix6hVuWWb4d8bcieclo1cWerr8l9iivfui9TVjv4zKTAjyyX0C28hJ/B8mFZhAbLxrMMuEpwxLgGxP+tNMvJtW3rIQjLV1+U/o/0+9LvSd8rXVXahlCHq86sD1y6MD/wJMspdAs/g4QbiNukoYGy8a8Iitbe4E971nCXxpm++e2lHuyZ/KkjmwPXFly6IPDElaerD34G3ei+ukGwC2Xb1qlVroNkW41mjd0FTta3SOOeH+S9O4PJm/yzWlxb8Ni2I6nDE/jiytfVB0+95UyNdDlz9R3kHWUwA78SUMv5GjtsxCZf8nbNSb4PPLok8CWfX8g+PPWStTTqEWmI82zsZbLrylE6K3YL7TwUUA81bJoZd3xLnuSb4V+3BQfw6JLAl5Aa8jXCU/haK2/RiLxhyD62XRSfhxH5OnnhaKZXB+pwJD/yzOddtw8OXZTWOXeGqq4Dp6z/Ltmt1kXElBOvA1wsLcu7qu1ZjWc9tGtHbfI5VUp+VbmXtV+s8T6vRWjYwAXewJ+yvOva4KtTVlGvz8vlZYE+5fQ8852cdi3APSy7f5TO9Gmb+ORBPmX4u9qoe6bzVwpOgT+uGqr64Cu8rZQD1FNlXNfOyyZdl/2VoPUPH56SLQ9NjpAO6maSOMQjLvHr5qCsn3qpu+sCf8ry92mDt5Vi/aOAa+WxazeIVUUepo4npD5gVY15TPYXSBdIXyvdTtq0fuzxg78FUvwTpyoHn3bqpN5hEOqHRz51FcfA2ykpHrZZXrFI9oKKxXbQNj9UwDdIvyO1HnHXkO2hk6pNT7jG5TTPkZGX2MF2SymTxePy+6XrS9eVMinc5PFyDn/FsaaUy4OY17x8Id4kPV86DAIm8OiFhmTh7cfL7AA0ZOkr/22ZV+aw422cki3X2Pm6u7pPXcNwyVGkCDyyYApvSw8IuxodcgQKelyp8V0RjqSXSC1AdtWGeqhrGAUewScLtvC3J3l27501Bm5/ovHPBNp0ZTiXAC+Tnijl+nOYhfypg3qoaxgFHsEni0zxN0/q3S2eZLPIaNcVM4D8pHRP6XldSSowD/Imf+oY1gNMVrKVT6X85bVIy2H/kCybEdlypBuWSxLyJN9REvhk4SH8nSaL1RLqjDt+7uhHUQ5QUWdImy6rhWJaN558yIv8RlHgE7yqw6HYD3/7ZJY+PSUtDqz7fHufl9H8sJ7KOlr6Xan1Ra86HOv6iUt88iCfURd4VYdJsR/+wuMpYa20OMjn80VTHsZjZ7bKPFh6gpR17hukloOBC1v84Rf/xCEeccdJ4JULo6o+eDz1zHwzI2L8Htw4yZMq9pJJzerm6ACYG05q1h66vVcG6HIpkzbOAq8OMQAAj5fz1AvZ6LlN8L93BFuMngEE5GEHmiQOAlZe9XicLen1DtuGfIZ1PdRQajIZIAJWXvV4nJE624bmfU+oQRqfEPBAwMqrHo8zMq/sEahsCC/qJEkIxEbAyqsejzNSb2HMihunJAmB2AhYedXjcUZq65GaH0VJkhCIjYCVV31HamtSq1oNk11CwIFAI15lR2pebLeIddXEEivZjA8CVl71eJyRutHd5vhgnSodEAIZL0PD9XicGVufYG0aGjWNTwh4IGDlVY/HGakf8ghUNsT6JLLMV2pLCGQIWHnV43FGauvlx9ZZFmmbEIiIgJVXvDsz9ceK1vcWto9YSHKVEMgQsPKqtxSYHal5M8wiO1mMkk1CoAYBK6+mvQgFy7nQDtEnNL7RmmJNcal7/BCAT/AqhIeMnXpgkx2pgc7ybjQvr++GcZKEQCQE4JPljyKm+Jsn9XXGpA4w2iWzhEAZAlY+TfE3BqkPKssstSUEjAhY+TRF6nzcefoQeh3D+Lul+S9H3mfaTwiEIACP4JOFh/B3mvCjh5YLdBIodTgtQmpICLgRsB5Y4S387Un+CPu4Wq6cbA/dHBFqkMYnBEoQsPII3sLfnuRJTYP1Jw+Okq31nexeIumfsUcA/sAjizh5y0W65XoGm7b+11hLkclm+BDw/d96y/jpvLnkJxN4fl5mWNc2rD+uOHzTP5oZw586jpX1w1d465TT1VtmXNfGr23u7vScOhMC5QjAG/hTx7Gy/tPLXfa38n+ElBn7tJ3V7yp9Sgh4IQBvfPhVNga+1grP3rOfvipz4mrj27Z/bYQ0ICHwBwTgi/UoDU+93z36lAa7yOvqu1y2aSVEICSpRQCewBcXn1x98NRbttfIp6Uuh66+v/WOlAaOMwLwxMUjVx/8hKdBco5Gu5y6+vhh8L2DoqXB44YA/IAnLh65+uBnsBwgC5fTur6bZb9BcNRkMA4IwAv4UcchVz/8NMn5snI5rus70xQ1GY06AvCijjuufnhplv1kab0zJalnpfzvskkSAhkC8AFeuEjr6oOP8LKRnCFrV5C6vsWNoifjUUMAPtRxxtUPHxsL/3sqP63qClTXt3PjLJKDUUAAHtRxxdUPD2v/N9/iW3plwN2pxhPLOgLa0t8xBoA1wkOb8gAewscoAvkvkrq+Ra6++VGySE6GHQF44OKJqw/++RyE/QbJGRf2S6VWYT0ySUKgCQ/gHzyMJk3edeXbt220TJKjYUZgayUPH6wKD6PI6vKyRGpN5FdRskhORgUB+GDlEjyEj43lffJgTQK7wxtnkByMEgLwoQmf4GMjmS3rO6TWJBY1ip6MRxUBeGHlFHyEl2Z5hyytwbE70Bw5GY4yAvCiCa/gpVmafKO+Y46aDMcBAfhhJbb5CoCnPyyhWAI/JTvrz7HKNMkYIAA/4ImFX/ASfpaKazH7KFnMKrWqb/w3DVlcPyyNGGME4Ac8sQi8hJ/BcpUsLN+i5bJbOzhaMhhHBOAJfLHwDH4GCYvk1kuP44MipcHjjgB8sZAafm4TAt4xxkD8ntmGIYHS2LFHAL7AGwux4ek0qbqmnpg20q/hBxp2r9/QNCoh0EMAvsAbi0yEGC3TYMs3x3TxHpJYGjuSCMAbC9+W+aKxiTHACtmt7xskjUsI5BCAN/DHQmz42idllx/79o3w/3Clht7vPzyNTAhMIQBv4I9FpvG1jNS7WzzL5lKjXTJLCICAlT/T+FpG6l2NGPPzUUkSAlYErPyZxtcyUu9izOoKo10ySwiAgJU/Xny9RwFCL9gfkk3ZF4RkkyQEfBCAP/AolHvwtU+KRFxDvZaHJ/xvozzhSZIQsCIAf6b+19oAJ/AV3k5JkdRbTfWE7dwYNjyNTgiUImDlUR9vi6TevDRUfePt9UPSiIRALQJWHvXxtkjqdWrDlg/gT2ySJASaImDlUR9vi6TeyJjVfUa7ZJYQyCNg5VEfb4ukzgcI2b8rZHAamxCoQCAKj4qkXrciWF1zWvmoQyj1+yBg5VEfb4uktr6QZD1t+BSaxowPAlYe9fG2SGorfCyaJ0kINEUgCo+KpOZpjkU2sBglm4RAAQErj/p4WyT1tEeOhaBVH9ep6kjtCYEABKw86uNtkdSPBiSQH7p2/kPaTwgYEbD++GMfb4uk7juMByS2acDYNDQhUIXAllUdNe19vC2Smt9gsAg/qZAkIdAUgW2MDvp4WyR137VJQIAdAsamoQmBKgSsPOrjbZHU1mfv0/6kpirr1J4QcCBg5ZGTt/xG2QNSrlFC9GmN71sA1+ckCYEQBOAPPArhHWPha99vPhaP1Ay6QRoqK8vg5aFGaXxCIIcA/IFHoQJf4e2UFElNR/AP7016Sz9kMwVr2jEgYOWPF1/nK6HQUwDjH5bOliZJCIQiAG/gj4V3832CzTE6J6E9fQKkMQmBAgLwxkJobOYUfJX+BfgyDbquONDzc98fQHrapGEJAStvrhd0y4rwlV1TM+as4kCPz89ozE0e49KQhEARAXgDf0Ll22UG/w9yreSQIAJvAgAAAABJRU5ErkJggg==;fontFamily=Schoolbell;container=0;" parent="1" vertex="1">
          <mxGeometry x="590" y="247" width="18.38" height="26" as="geometry" />
        </mxCell>
        <mxCell id="sAz0puc__kFBI9K-MMxM-8" value="Gemini" style="rounded=1;whiteSpace=wrap;html=1;fontFamily=Schoolbell;sketch=1;curveFitting=1;jiggle=2;container=0;" parent="1" vertex="1">
          <mxGeometry x="580.01" y="190" width="170" height="40" as="geometry" />
        </mxCell>
        <mxCell id="sAz0puc__kFBI9K-MMxM-12" value="" style="shape=image;verticalLabelPosition=bottom;labelBackgroundColor=default;verticalAlign=top;aspect=fixed;imageAspect=0;image=data:image/png,iVBORw0KGgoAAAANSUhEUgAAAIAAAACACAYAAADDPmHLAAAAAXNSR0IArs4c6QAAAERlWElmTU0AKgAAAAgAAYdpAAQAAAABAAAAGgAAAAAAA6ABAAMAAAABAAEAAKACAAQAAAABAAAAgKADAAQAAAABAAAAgAAAAABIjgR3AAArlElEQVR4Ae2dXYxlZ3aW9z6nqtrOwKQc8ZOIXJQRhDE/oo0IytwwVYkc7BEz7pZQRC6QuxNGykxCuhuEh4FIXQ0MBHHh7lygiES4LA3JSFx0m1wQwkCXNAkeZQRuHAkHgfAREhKCIV3GHnd3nbP35n3e9a1zdpU9ttvj7j4/2d27vt/9c773Xe9a37d3naqrFd2aH/zzF9tqcL6rNQDDwd7Gr/27C6s4FHz8ldsE/nNtXZ/vKn38mn1QNV196eGvfGV31QZjsGofmM8r4E8JdeVi77qqGgzqc6s4FitHgMMntk92db0lzCvkX3nvbVVv3nryya1VI8HKEaBqqm3AT+snlyRQKmVYrW3lCCCDf7qW9AM6JOiqAS5B2bpSUPj0asEfZrAyn7nb3t6cDKubAB5WL/AVACogVDqsusGwmmwMH3nk2rWDVRmUlVKA8WBwKsAH3rD6sP5CBKlB1QxWyg2sFAGQfwd+qQBH0qIE1eCZVbH+Ygar8XFvPbm9NZwMXovoH4tH9gGdfVi1kn+7gMF69WZ955FHV8QNrI4CNANH/wF8Bn8h/RCBYBAikD8x+MiZ1TALrX+sygcddt25BJ+PPQv+igpIAawEVoONlZkNrAQBDp944qQWek464DP4MQuoCuhIP66gIR2uQYTt1/7yT2yvgnGsBAG6trH1M9e3Cjj4S/+fCmDgtU5EPLBWNfXaSswGWA1Z6o3l3boZK/iT7A/w9SKBLL1B6i33AltWj/U39bryG9VkuF5NBusHG+vf+eije7tLvSaw9AqgZR095MHnE/hptU8kaBz5y/KVJ/rXCqDIAAnWBHyQQ/nN/1cdnl9q69CHW3oCtP/3G6ci+IvAzxF/IUAnwE0A/D5EcBlFQAm0DzbOvXxmd3OZSbDUBLj1xBNnZPVbsdRbLN7gx5wfF4AaWP7x++xFCZyXCtzeeHipVWCpCaCg7yLWzwsf3UDyTyrQHfUb8GnAV4AXIWz5EEF5+qxtnLt+/rmlVYGlJYCtv662Yr4v63ccAODFxxclAGRH/Q4EkX2UQEGggkHIoGBwc9I+tLQqsLQE6IaDi1h6+vyc6yP7qQATgy3AAb8n/VkfKfHAQ+eu7l5dShVYSgLcefZZpH/LUT+WXqzeQZ79fi/gEwkmAl+WPt2tAJoSTgaaEtJWr20O3rq9lCqwdAToum5z8luvnLH0e5rHFI8YQKBDhiF+HsBjt+RPo/6sx+pxBSq773o1rk+c++Xdf7W1bDOCpSPArU8+KesfKPKPgC+md+H7WebFotPvUzYBSh0LQOH3IYKsv6iCyTBc32yb+rnfJcAcj8DhF794UsDrXf9i8bZ6LB+gIUEJ+JRaBforf2nxKf0CH1dgd2Ai6G2hwdqpX9j96vYcD8Fd39pSKcD4lVeuRoCH7IfVe46P7NuXC0RZOUSYGHzSmO5RJvIPFUABcocEEEjtOocU5fnnd19emoBwaQhw+zOfOdd+85uW/gB/RgIHgVh4gl8UwKCqDrm39JsU8veA7XpSiEAfHR+uYuvN9XZpAsKleBh069SprfbExn+f3LpdG/yp9WO5slpbNyBqRwkK6E5l9Yf29ydcPx6SbogEqEHsJoRJEC5hzPnWHnr82We/78Zda+6cHbAUCtB85DuuAn7Iv6Qfybdsh8+3FafUp2WrHWCn4Ko+yqoXSfp5SENdugXHE1X1/O5zry28K1h4Arzx6b94sfnmmycNOtO8DPZEAvt6AW35NvDhyy33a8g+kX74/TH9isU7pXwEdMrDaqz3BUyEenBy0A4uzplB3/XtLLQLeONTT32iHa7v+7Hu7EUOkwAFcKCHdKfVS7rHzs/k3fLfk/xxrTaRwzLvY3EH+H9cSJ6zBJUiWzVY3/n7F75n/65Hfk4OWFgC4PcP6+46K34O8vD7slgDD2BT0AAud8CEEEqL9ePrnS8kcB6iqJ4g0cqAShj8PC8pbgYiDA8G3YnHf/bCI6M5wfSubmNhXcDkkd/7z/SGz1Zjfy8gHOUDSgFJ4CH17LZ6LB/Qcwd4ALYiKDXo6oO/px65L6Aj/Z4uQjDyerA0keLw+lhTDTZvD7qrdzXqc9R5IQnw+o+cujh5442dhqXesoBj4A24Ar8CakT5EbmH1QtctR0KWCuBpB51OEIElyX1JkGkh5DCxIgYYCzLNylEBGKCcVud/OzPvb6Qq4QLR4A3f/pz5/TLHbsEfe0a1i4SrCmPEkAG1VmulWLBAXSAHNYfSnAIERwT4AIKCeiPr081cLmAjSIAtlJUYKyA0wGhXjObKD/p6vM/9nOvL9z6wELFAG/8vZ/Zbl577Xpz67ZX+jwdk6X65Q3kWfnpXB+JB0x8O4EdICvFx9vv29IjD+CHuAb65zlIi+XnKqKvpzoA99vDTpl5aFe+1e+dTdrq9JcufOTaHKn8u97KwhDg5plTW9VhdV2vcOklD1mhrDPX+P02r602SOBFnAKm8+nv6xMh9y6zAITl4wYgAspRXIKO5fzjSufTtTwdVMq0klfIJh0BZ3m5VG7A4OvNI/3ugfbhgSp2funCxkIsEi0EAQz+uLsuud8C9JzrTwAIUASkp2lYbAKKpSp/aOsXwCbEiQJ6pCH12Qb44TIanTdigJB7COBlYIgnwBuB7QAQq1c53jYG/FCBpqpH6936zpcv1KN3Nb85aJx7AgC+nvFf1+AKfCwvQS+gFKmeADQAkgrsWN4NC5+RIiSfMv0I7kLypQzkdVxE/sh/WH5E/bquzk30DwEA2q+WI/0dZRFCpDAR5AZ4D1F1o7ob7lybcxLMNQFu/oTAv9NeF/BbHnCBlARIqwTAxuDj49mDAAYZoHNXfUzvem4AVZC1B0F0rIK8sPy4DuVpfCHQ8f1T8CEjwGtP4Hn7mDo2Ukig/ju/OsckmFsCGPymvd519RZgG3gkGMlXWe/sC5C02nABadlTIqhPPuixKxBZSA+rEuyZFOUcRfaTWAm+5/tcV+BPZO28a0Deqay9TwLqWn3lmAkxI8JoUNdzS4K5JIDB75rr+u6+LaR3Cr6BR57ZAziIEP59pgDjAZIeMu+0AI+biPoggmXex+tcuA9IwLkV5NFGrBEE6Ek/LgCgsXDLfeSVdZl6vnaulQooKWSoRnotfWd/DpVg7ghw83OfPNm29VUN/pYialk61pdWj6UDEv5eQCHf5JF+gNROG1aud/iK5AfozPknVSjCuCjAFPAp+JxbO9ct8o/VTyP+lH1bPsAH6H4DqQBuYpAHfVyCUrLixUju4tSv/436P1Gcl22uCPCNn3rqVN3Vzyva38TqCfpC7gswAjGifYEJAQDaYCbIEEARvurCHShvMuDfUQj6zUiTSnIoIkXkX8DXdVGBlH1SfpW8ERkaIWcrJxDE2q0EM2sPqy+Wn+BzjFlQ6blBffarn6/nZp1gbghw88JfONe09eUAvUT7UwKEtXuhRyBOLT7Bl2UDboDdVwH8fbQlWSI+gFCqt+QDegBvvy818Dy/RPqO+rkPA14sHtBzxw2YCDZ4kSTAB2+DzghTV1J1rbq2vvDS5+vLanng21wQ4OZf/+HnNKDnLfeSXkiAFLe28pB/gy7A/YTOllwUwHnJPUCr/XDq/4sSGGhIAIlQAY4jDaufWj/XLESwpcvqSf2k0QAr4qcsyOz7RYgI9lSmTnJfC+iQ/BhWSEBIiP7bJbgUbe2guvz1v1k/8C+ofqAEuPm3tre0gH9VEqu3eZHcsHz7YIOvOvl1/HH6+rDcsGrLvEGFACH3Uxcg4LH+qeUTIxjgQoK0/g41SMmPlKkec35P+bD8YuX94A/Q2SAD4LNBCPAG7ACflBx1Zaiji+vUdGPYVae/9oUHt2BU7iru537+vPkz29tdU10V8Jv4WHxwLLWGHIfvl7US2AnksFqBR15gh5Qj+wF+uADy9IEgkTcJVOepX1GBUBNkPeTeEb8UYSKzjACQ+wkCWOrx/QIZEGcKALgz+Q+YQw3APN1C5I+ObPalVvnRY3+wuvClsw8mLrjvBLi5u71ZNeOLbTc8H2vokmIFWJ7qydI9DwcYPbxpAJOgrViyrRlJ76gXwJL7Q+UhQUT4gI6ls0MEld0X0nCMUiye86sM2CjPmIBPeSSeOj9rENhYvmcABj7ARuKxeozev3ZusIEyZN7gZh3WDmPKKKcyUHQ/UhdUGtS7//Hz9SVV3det3Nr9uebNL37/SaH2fFut6Ru7sSoNOjvWz9M45BZLFMiANPX3gIWkA34C3BXrhwQGWm0C+FD1uAEIMSNCIQDAiwBcD4I0fqgDAQJ4lnUhAsBaAaQI/WAvrF9jpXsHQMjg7x0uw4fcR+AXZOiPKv0jDujXBhEMgn7o2JFad27cR5dwXwhwc/fk5uDE4Jx+tWp3+iQP0PG9ApzXtm19nscDUFirl2YNfAIqi1bfkPfw+XfaIEIAHgrgPJYPCbB6zgfwqgvrL0SAfCz6IPcFfO4j5T98P8BABMCK1ycA2YBi2kKVtf+0dD23cJvNnuaCNwPtfDm2VEdlaaQdZVG6KxJcmva5hxkufU+3N/7xn9xu28HzGrytDPKmK3vILpZoqw/LtPULmHH9kACcyX9YM9ZeCKB2rB3rtzooP6ZsBUBBKAM8oIeiWFUEOKSQC4q5fg/4TvfjhR8Ba/lHn1ED6/Qx/686wKYd4NgMYGSx5lkZULMT7VlWHQD49FE9PZcyIzWeFRH21XTPNq5/T7Zbz31sa1LVz3Xd4JT9qKVV8mrQBbalPyySfMo+4LDYk0GcF28MZlj/nY4US8f/h9ybCKoP0NUG6Fi+SQGx6B+upikxgC2/gB8WjhqgBMi/wHYecCT3qrMCGNSQd/B01M/oUW8ksf6jQwrw0RbDbAvn4KPdOIWnkdlUlICD9rRfuldu4dhtcL1vb+ue39p86621c1rO1d/kIcJn8AJ4g2/gIQBWGQoQy6+AKevEWiGAUlu7wGsE+B0sv3rIRLkt2Q+FwMohAuBrB3D6qd2yz7naIFn6fggQ0T9Ay/0QdxALQAbAV+oInrxdQwxRzP1jbMizWQBIy04dG+XcbPn9UU6ES4cjyqC6t3WlIo7ZVe6FD5sI/evp/B98A/jbk4rVvPNa6drE1xNMeX6PNRlsAS65Z+CRfksyRFCdgTfIEQTewVIl857Xy6JT7pF8dkiRlj9usXCdB0WAOCW1z+c8lC35AK5rKx/WDjEVABLsydLlqlQu1g/4ylvmTYQCrMA34EJuau0axeNAMpImgn8I2F4fVyWw7zLkU3CU8SJTXY3qtrl04++s7b3LYXfVNL3GXR3V62zgB9W5dtLq17KHAl4Dp09o2STPDvgAQDolAGAJDMu9CABISLv6hcSvCWjiAKx6oyLYo/2OLPqwftj9Pc1THwOOCuDz1a+BBOrXQjLVQQRH/m3chy1e90IcEKBj/dwn9x6SD7he6/dnAUzIUAghNAPwXsAHqmU03aY8KVVOy+u3zpe23jAeyZbTBIE4rU9CJrrpHCPV4Rb2ouaD/8xr3fUZuquy+LcOz3XtUFLfbcrX+4ZNAA+uag02UXVYnMFXHfIcCgBAWLpARcJFCC/oAKTJIOBFDPt7K4YI0IkUqkP2w9KlEoUgjaW/xACArjIWP26x+tgBPfKAHd8hFGqQ4EOEAC0UAEWgIkC3+hcVYNASG7p4AFQx5YIy0Z/Go1sSgROQZ8tzkVLA6n2ubFC1u9JGn8rTxj2lH9g1lPNwrve33foX3709bOunZdlnNPUR8BoY0RHr6VQB6PhIz5khgurD1wM8ClDkWABblrFwVADQcQGQwaCH5UMMfP9tgUgach+Sn/6fOgK9CPpEKohgAgTBEvxG5+D+/LAH64cAWH6b9w/YZdcQW8UMgoaJkXeepJTL6CWABuddhhFLzr50oz8gSySd5wenZOzKqZXrbVSWPhxLp+ynU+zpzfgrX3+2vquXUfP43lXensXab1W3zgy6wdMalG16WBJJdSeRDwXA4lqIgLzrZ8vcXoPMoDv4Ur0tHRUQGXKqliQw+CKHV/gEqp/mydpxA3YJWL6AdODXPRwqYMAhga6lPAph2ScAtPXHtM/3xv3JFfjtHhNAUm/fHwqgWy4EFhFEjATbAw7Z+fDaoqyMRrAPaoJypI5upV8ezzn6g099lrNPv0ze5azkBGU7UlVXN0SqKxtVtf9+njEcOTZPSAro4+E3mcI9oxHZTpoG2ByGxQtg3VY8DEnLYSA1iET7GjBPqWTVBt0kKHkIIgIAtC3fIJOX7IscEMFkAHBUQMDiDiJOQAnUbrAf0jXUp4F4oQIoQUNfgd9CAsk/hOyUEo9MGqw/ACcGsArgwqxcpEECf1blqfeYGBmUwcWo088E1wj12ma9gjDvNNh0p/74YXnOdzpmel41ZnumtHGs06q6pnt98aN3qmv7u/VB1B792T+uOvy136+3cQR2pz+tJksP9mtAfHvJ/rCKJALvwEGO9JdMnVgxI/WugYUEBHuHIkD4f6xUeRRAgM9UYKO6LUIEKQBYecDH7wOyAAdcrN8EcDwg0BsCP+qw9FABg69+rc5nyZfVowCdrosCOACEBFh/IQMOO2RfZPbQQmqBgyZTZrTcJ4rUTsngtmP1eQhDRGdtAH08n3WkbHmqfj6PyTpSeHmkvhw4reu16wXmfciwUVf7/77nJtx3/G++66IAPa8Om7ZsTqu7CQLETVey6JgSBREy2ucWPN1jYHRTHkzVOfBTGq9S4w7w4eF/SZnGsTwL+HcKCQJ4Aj2IMlvpC0svhDDAmgU4HoAQQYZJA9Bh+Y1iAmYAjQjBbum3K+AzQAKRUmV9d1zcLzGA8pq+6jNAYDXp85jUAn+qAIxWEkBZhonOaa1UvdtGPweU6lQOdfd+3henlspZEoWs4AbLltae90E1dcQWeQ7XlfqSH6n52tc/X19YO7z++55r2u68PqUO1ADpYJ9fZc6Q69+Ab0K4TtLvfgwWgxcaQcDnqZODP5HAgxh1QRL9VTbVoQwTnZ19rGMn2nnVaqJLNpQ16PrV79LGX3KLNvpz/FjQcMxYfUgnSunT6rhQGwY67lEGbgvmftnyrV3umE8YP9XJ+fjJZ/IYUOS4LDiltddOc7bTv2xUlUu6hjL9si7bXV+OcZt+UMd2vK8rSmO2uTOFaYXy6kO3rHKaBdVr29InPv8D/6h7fW3SNWdqPY5li3Pz4fLwyGMx0IraGJxiJSp7oLEatft9OXVCMbGeiAXCPRhwwIcU9FWjf8NGyPAalVcMdR3A91e9qB+EGEt/2aN/IYs+zER1gNoOBLTPpVRfCN0p34oQ3Feju+CfwaY/Vp7/1McxjK6j3rr/3hjwQbVZ8dTuTYkOUd/YS63L0WH2kz60l9NMgcgeWZ/lPBflftvxPNfPjayP6x+cjbQdry8HUJ3Hqercmp5D68MDqwandAqrB/SwDM4bwAeodIs18gK026kjEAMYAkCGFetXH2IEDT5TrEYAmww6NYBBBq4X1g8ReqoAmDreqqB7pD95n1PHNzoZ+JgIam+4tu8NcgWNDbKu4Ppyn6aEzlN6xGjpWh41Phz9Mo0iA6D/ulhpiGM9lDRNt6hx92kdmazPPMewZ/2Rc6gyr0//3Pr9s66fur2cMPtSfBsZSh/Q1Uuqgyuex0OEoQBxKjKold3WBFDTNuX169huo067vphZb3ZxrPrza9ul3DgV8BxfzuF+HLMm0AFNxzitJesD7QBddr7iHSumT6P2Ru0KD3RtABbYpPRQf3FIPSGff2pwAb0Ar3ZI3qkthp08OR3nNPPUuLYgg9izlTr6T7dsmVY4kz1ozZ0G6rONNNuyDpCoY0vwsxy1s/YsTw8oFUf668RZzvNpiI5vLww+8olv7HYb33tFNBnxa878XZ2Q1gRNdYCqOzQJyDPYArfT7+ADPvn48yvlGAHT6Xf1vet8/A5/YwJwLvoI0CRFP9Ud+3v9Ob/rBaBemgM4X5N7AEjOrz6upwxJtJsE9NVOGwtTVS29UB/owcgGLVT2qFCOPINFla1FBXRJNf45G8kcP9piy0HuA5h19Jj1jP6Ufa3jbWpIoOjp+yh983y0T8+XlXR+h43jsy9ds7vTujpQ+6WXnq3PZ71P8eZv/KGTkuBtNT4tWd7mBKgDrsB5nSZsKIYHic8ysh9+V6n66VGwJJmVP75IQQQgstfutX5mA4rSmQXEog4zBE35FLHfYV1AEXosACnyV3TPegALPMwGcm2ASJ82UnZmAG1DXlG/+kW6rpgAt6SUXdM/ZgGN1gEqBapR5r7NOLXxOfV5SSURdnuk8eGjzSMVn99ZfrjDrI5B7Q9+P+/Tq6Lfh1McL1PHSfpAuk4/qMu2rOMEVLOzOaWunEMV+7KpF3/oj1T7/+D0bLUw+8dRvZ83X97aFCqn9Nn093brUxAh4wA+EMCn/7Y6qDKe+EESACeIEwlEDKaCvHbF1OxQpuwXPUwIVvQgwlBp5O8IMJZxWfptmAoKUC8KMc0TsKzyjVsWgiCKgAZ0T/9iPaBlTUBtHYQwGSCEpny6NmRgb0wEkaCsB0iWAnDuUfcXUb4+h8p8UJNCtXzu+BHDFvpQhlCNtL/TgPo4H6szGb1yml7//rHZ3+fSD/hF3n2mmWPXUj1N7Gwlv6+P88JH33qfC0Fx6Nt/3nxpa2u8MdzW3Z/ToPgPMHIzBl6XIn6Kp36SdoHNmzUmgNpYcvUbP0p5FjA2ASBFIYOBB3ztAieUYM1P/RrN8UMRAuyx1QAixEoglj8W4BADEmD5SQBWBVtWB6kDeJEKErS2ftWTGngpgIiQVg/oJoBSq4BILBnUZwoCMLA2eA9T1BFoGlgjNGt3X/eb/fhWdTr99LzH+/TLmSctXCp3QoW94L5u98X2VrV341us/s3uJojSL79n/n+//CdOHnbNec0envFCia4aBNBA6o48zSuWz/QOV4D0A77JANAiCcuzd0QGlogPBUCuBiYRbPkQQsBaJWTNE2RfdaS2/kwt/RABKxfwgI4qiDChAmH5VgERAfBZEVQQo364Aixdqe4LBfCwAHohQRBA3Rkd1c+2IEAg14cmehQ++LhspSXzeSaft1d/vI8JVzrnMe6TBfl0XeQF1V2721fI8hSc7662117+2NZgsHFGoRZE2PK8HzIQCyjlEWss8ACyVMCqANADAQoZkH1SrF9uQcAC9JQAqvfzfaxewPIeALIfq31yDcUlQAaWgtmRfVQB0HkUjNW36teR1/nTFYQiALxIoPtyLCDgIUVYPfUQQMMzJUIQIOQ4h40+CR+HUA6AQXmaV9PxLcnhek6niqwjZSvVTqOm91ONuhzAX9FS6uX3Y+29o6dZrvFtb//tlZMiQn1RizlbtiIrAQSQYdnyCQopixiS4bHSMVavtgBepLAKQIJYHgZsCILsA77JICAhCZI/kdWjAgl+uACCwBID9FIIYQLIJVR6/pCxgH28rocC1Ept/Vi9h1xqAAFMDIYpwHVbQciJfhxfGTSUGgMj2htd+nOm3MppZnUc4vPNDu33z+M0lAcK7r4t4PNc73j+bLzb9NVX/swZfW/fRcUDW8g/A8zSbAAPAdhDBfwwyHnKEKEEghpw4oA7KiPpU1egvAM/WXkAj/+P2MCzAFk4KS6A2MEqMAHUUIJOxxMT9GOBWu4nZwKRltmAiAlU3L/dg0qpBoxJkiAABLUA1uX+iEaH4zww4KWJ0003Du3Xw6EjFQDfCPjxB7f46cVKpn+7x9s+UFmSuPXKf/74GS0wXTQJsHy7AGYGQYKxFhrC+iEIMQCzhKFB99RQecC/PSUBfh/gUQWBjvyLCFg/QSCE8KNg1bcQgDKAk7qOMg9/ykxAKf4/3ELEApZ/3YcDQ92v/T8LIuQ9E6CNIZESGEIVE61MPWJHh5SZQipE4vleqU/jK8UlNZM+0K/RXRl8iMD3r5H5DzV9+dXtra5rdqUAz8SaAGAHCfybOLgBK0CoAgHhVAkEFkRgSugnhqQGGvcRBLAaqM7uQBbvp4ECHAWgDr+fBODRcCXCZByAGtRSmXQFAb6IIMIxg4EEln8UADdQ0gAcArAF0H0SuEZmG3XqZRNWVw4oqGeWM8R5yOXZIj/9qWN0imvqeOHDfhs4rxGfIkv3IH31tfPbr9++8bzWBuQWADmmhhET4PuDAASCE7sB9RFguIAkgF2B5Bt3gOXTbvlXPqaCCvoKGWYKELGA1wRMBgDPPVwBi0JWArsGgkGmgIAf+Yj4ixrovoMMGiSAFXpHXEEfTZ2ldCn9AvbCgbeNcoIQvTi/9s4vfp6926j+bSd/jwrmPPd0e+zRy/s/8Nj+owoOL9Vaihrkrg/JIA20rDtQRNPfa9Vpdbla1zLwkHY9Axgqv6Z9MJCOUNY+0HJvVevRUtlr1dVqZ/cSsCMQ+szKep4oXLNOqfpEX+pYKKaOvM6l+/NiD/0NtyACHOXZQgtEg/JZnFLvPkoLoriAUhV9fSxnOLrRpxxyqT6sHr/X4HP1vK+jd3KPSi+9+uQWX/Gu2GDLawOyKiz/UL6WABEX4GmhLJFZgWcEpFg8uyz+zoSgUUpQAkBcgWcCsvKYAYQLSN/Pix+4Ak8L1ZfYoCrp1A3Y4qUGum6oQlEAqUG8JCKo1RbDpSGzGlAkz/9I3z5sMbxTN/H2Dj4l7dFT7/Ot6dfBem/svNMhH2bdPVeA/s1+/LFfHX3iY//6UdnDpVrmoeCm0rOhSg8GZdESX6W1rA3LxvKHKIPVIPKiiVXA1u96rS64r1RBVo461AM5FylCqADqgPVGO+dmItqpr1OdD+tXvK/rogQoCGiUh0lFCQwx9d5oL1bfU4K0+tLpWycg3d8pqqz9iqx+536Cz01yKw9ku/5fPnXqsG2fE1SKDbDyCApnaUwP/bBIKhB+v6wTyIJ5CTRnA06xcinD4UTBH7FBxgRKPSXUMV4Q8qxASmD/r2BQfVkKJiAUFSO1tRMUpv8XM6VQxACipD0EVs+/sO7+MGZdDGv0K+RxAtqlDS4pwtdJT98PuY+rHv2pT/Ngtp0/9ivX9HBoZ6jH0KjBUFKAAninPLV8vdGHEhQLD4uPGGA4RC3C8h0byGKHqABWrZQ2p8QGpR8KEW3UydKJE7B87UZW/UI1UgWw9rB6Wz5WD4aAqPqw3khzJItFG2co4wN8UMm6I9Sobqj5vvj6vLfjaeHi8er7W/6VVz+9Kxguenooq+OBkVcB5YPv6G0QLxIRA3gmoDhBUzgUgOXgiAFIY50gVgnx+TEz8FvCk7D+mBFEHMCycSgC0z61F+v3MwJdy6mu76mhrF9/kkx1oQIxO9DQCVvDKGWILeB2HtwFccJPyXn/sEpckdWfp/5Bbg9MAfof+lOP/cvdoeKCNY0jMQEzgjUpAA+QiQNiV14W71mBrDXiBNrDytPiKaMCaf34eNShQhlKOpsVKAagDquXEjgGEExTVSAGKArB/ACFcOyCWrBzj7rfqBOyqQjqmfUM8IweUZBCXJgH8HU3OLT52D712LVdmdhpEeDAQWEhAUQg6AN48p4aavBdp5SpofsUoB0IEgSqXCslIOxcDulP90BKPQFhq7TSNSiTZzo5nSrqmoBPXboGS7xqAdYrfQVh7N277p1Gquk7JYb8/aCtT+u7gC7Px6jPEQEYkNN//No1We7jivxHQQIUAQUgldVjpdrJr5kUWGUCHVbvWECgsjYQoKEAgMexQQLyATTH0pdfYlNeQMfaApYOQQL0iBXCwgHTsYJNu8QO6sfsIXx/ECOIoK7qbw5U1Ui9dv7D334w3wamO3nHbW4UIO/u9GPXRusKDiWrIkFYty1fdwoZ1iBC2QEpF4QMPEBDEoEfRABwpnqR2gUYcJWZAqqvXkM1AbyYJHeAIpgsTsv51MtESyLJFUGWsOwi/Vg/YJfdRDH4VoPRuv6KyP2e4uWYvls6dwTgZk8/9uWR7H5HVjRKqwR0S71IYQIIgIgR9KqJgIlInnxYvGMAgRipAAdQgc1KIHmrg/qS2tqTCJDARABg7Wqn7BSVgASa+6EOCTZpksEq4HvkPrUPqtF6M9h5P7+o+W5A3au2uSQAH/ZHRYJBPdA0UWvigF2sfkYExQFDAQIQAi/iBIEDSIANaLJ8B3bKG2QDH1beShnw+ZVT+kYMkO6A1OfhXFwDokAG/YMMBt0qEPk+CRzvhxKMBsPh3ILPOM8tAbg5SLCu79lXRG0ShMWFZQL8lBQCxJYuQNKiw/LpOy7g4wYEvh5E2yXY4kMRIIutXuTxKqFBjzyxQbiEuC7xRKhNpsh+5iNNy6/1Z2W/Nod/I4CxzW2uCcBNWgmG1Q5SaiUQyOkKIEQuFbO0C7AAb/AhRbH8DP6YFVjCVW9QaQd8K0XGAgV4K4L66Tx2BT4/CsCxpa60ZeQ/VQEFsQoU5x58xnfuCcBNnpUSjMf1aSnBgYggyQcI1gCOWh+WZ+kGGAE1tV4ATx8PCZS3vJe6JIF9vY6jzB6WH8phIgC+QY8Uy3eZOu2hPu3Bia4S+A+PdNG53xaCAIziTz7+Szf06vVprcWpJBXQ3MoKQKq6yAsEtcWCDQCGxSdQYekBXofvLyATGAJ2J3dBPTODmB30VWHWf0oCEQA3xPkhH/eg6enZ/QUBn3FdGAJws5/9U1/aV4B1gVU2W3oZfCQ55vpYIcFbSDXuASXIgDADwQTc5RIMpsXrd5FnwaGsmpggiWLpnypDAO+1AisABOoufvWvffSaLrow20IRgFH96T/9zy9r0K9MF11sfYAhC0SGbYmzxZ/ZvB6ZDlVw0Cd1sArg/1WfcYCJkCCnMij1eUQWuwVf5ygx/sDv6a689FPf+XcXBvlyo9jSQm7/8OVnrmvyt80rZXfKQyI/INKDHB4g+XGxHgjxOhkPk3hI1Kgf5XhJJB4K8ag4fm+QlMfBvDDKY+I17XpgpEfVkY/Xx3goVOutDR4V60uz5HL82Pi1lz733X94EQdy4RRgNsj1WQWCB56Xy+oJCpHj1lM41ACfTDwQLsFBIFLt9kgzJojXxEIFpnXq2yomiNigPC9wnCAVKcoQsUA7OlF3Pzi7r8XKLSwBvvD43kgwnvaii4NADbzlP1bpCAQhBSDZTxMXIPsmQAZ9qkPWiwvIWQPPCYgFqDcJ9D42rsHksHvgvLgT7cPxhf3Pfs9osWCf3e3CEoCPsPv43r5+Jf1KWj9BmkHXT/LEBH7J0+ALQAJCrFhpxgbkrRoAXALCqQo4PhDYPm/x/5BI/WIa2Vx66a8+ulBB3wz6yC00AfgIG8NuV+9j3Mivgoll2LD6AB/AARE3UcC3NdOHiB9ShMXbhVgRUArtJkrkbfFSAtISKI6+9pk/uhvDuLg/F54AUoGDSVuftfwLMkC05DsPuNQVi7c7CBIg7fFNIgK/tCP9EQ8AeqwJhNvIcpCFPnqfeWdxYZ/d+cITgI9y+c/9wg39JvIlbNyb5jYGV+Xp18WYGEkQCAFRAD+ndgIXFyALNxGsEvHcIOtRCtrrYXPpa2cfH8XFFvvnUhAACN56a3JZkI4ANr4tDOGX9Pfkn28SshpYCbDqIAIBX6PdK4CA7PqSSvaDEJQdMI5+8698/y7XXIZtaQiwt7N3oJc2z/KdBFg9O+/sOS9o81vCXK8yZMjgLoNALNxWXkiQj4xDJUQAKcT3PfLQA/9rnx8m8ZaGAAzKL3785/f1tXEvxNMCIBbwuAHl+EeOPXw+pFCd1ICZQZBAdZb+AJv5Pn14q8gkGDR7v/zJP7vQUf9x8iwVAfhw+rLKXUHsBaIAH2tHDWbAmwyOASCBwBXoLBg1BIZlkcfBHzEB7fl8QHHG8QFc9PLSEeDLH//5kWz2Str7BMvXTICvsAsFoBxK0BQLJ6qHBKSoQQPouAEHhaQQZHLpxo8+NVp0wI/f/9IRwB/w8LYCwvYAywd8XAFWj//nG0aZGlrylSeNOAHQKRPohfRPg8FBM/qtH/lLe8cHbxnKS0mAawSE1eAK4h3fLQwREHkATjJg6QV8pQF2pI4RHAuobBUY65dZH9xf+L6XRFtKAjBgtye3Lwu+A3/vsMUdsFkHwBGoxQ4BYsTufhBhulgUbkAzhdFvnz67dy9BeJDnXloC7EsF9NXzV2JNQCBrlCMGCBUIEsgdiA6QAN/PE0SUIPx/uANNBZcu8OsTbmkJwIfUl8pd1tfGH/AV9Mi/v3YeNyAqEAuk9bMegDuIIDACQZaCq2E7+q+f/sm9/oAtW36pCYAKNPp2rYgDCPwQ/hn4EfRh6bEolGUWkCDH9z78HS8sG+DHP89SE4AP2w6kAp4RiAD6vjf+4Qz4p7+WEoEhmjBVBFrQiEn1Pw5/Z49zLPO29AS44SXi7gVcALMCoI3AMEAnFrDlO5UbEBE8CxhWe6OnvjBaZvD5bEtPAD5kM+j0bSQBvKeGEAGgp/8APiwfmkCCZji5wrHLvq0EAX575xf39ado9j0TUEAYUAvaks+XRSAF8q8ZwY3/+cO7N5YdfD7fShCAD6o3hl60G1AcQLyP9VMOyw918NNBSKDXzDhmFbaVIYCWd/cc/qUCSPLD8tGDeH4IGfi9AhFjfxXA5zOuDAFGBIP+86nYviD3wyHNEogF2PWPRSFpxYv/66mfHSmzEtvKEAA0m655Ibx8SH7KPw4hnILJsFTP+9+LxStFgNuD9hoPhbD2EP5Is0TdQ+vt7xLgvVizqO0HcgMCez/uH5vX5lhAiYihIHB/tHP5INpX4+dKKQCQ6u8AvBhP/pgOhu3z6+VlSvjiasA++5SrSID9iPll/zJ7XAI7BKi7VIfZAC17jo++ctvmV378pr7oeVOTPk2DtOsvnak8+j8/9E8eXbXBWDkFAOD4fULpgKaCqD8PifT/hVUDn8+7kgrAB/+uf/vjem+wfgYF0ELAld954p/uUr9q2/8HCUo610qrC9MAAAAASUVORK5CYII=;fontFamily=Schoolbell;container=0;" parent="1" vertex="1">
          <mxGeometry x="589" y="199.5" width="22" height="22" as="geometry" />
        </mxCell>
        <mxCell id="sAz0puc__kFBI9K-MMxM-7" value="&amp;nbsp; Anthropic/Claude" style="rounded=1;whiteSpace=wrap;html=1;fontFamily=Schoolbell;sketch=1;curveFitting=1;jiggle=2;container=0;" parent="1" vertex="1">
          <mxGeometry x="580.01" y="140" width="170" height="40" as="geometry" />
        </mxCell>
        <mxCell id="sAz0puc__kFBI9K-MMxM-16" value="" style="shape=image;verticalLabelPosition=bottom;labelBackgroundColor=default;verticalAlign=top;aspect=fixed;imageAspect=0;image=data:image/png,iVBORw0KGgoAAAANSUhEUgAAAQAAAAEBCAYAAACXLnvDAAAACXBIWXMAAAsTAAALEwEAmpwYAAAgAElEQVR4nO19ebhkVXXveU8TkheJSIj6glNQHCOYOKMGFQdA02DMWau6mylK2kcEG+hba9dtlG6RCA6IKIgEjIqICSgyiDgxKJMiRGhud+1dl6YJyjzTINC03e9bp+o2Pdy6t+qcvc/ap876fd/6q7++tdce1tl7Db+VJIpNsKw171nOwH6O8Cxr8AFLsNIS/tQSnGJbaGwL03Yrfe1Kkz5TeqwKhcITJo/A5/NBd4RPOoPrBxFLeLc1eLU18O0OwZukdVAoFDmwPk2f5gxeMujBn9YYGHzcETSkdVEoFEPCEn6qyOF/6kYAf7CEhyc1x8RY+lw2qtLjUChmRaeZ7moNrvVhADa6Dfz7pUt2fXpSM6xfsuR/uxYucISrncGb2wYXrlqy/59Ij0uhmBY3Ldrn2Y7gdp+H/ykjACckNYIdn/tyS3jVNMbwfxzhwbcelv6p9BgVig1YnyT/yxFcFOLw9zb+7+3hc7dLRhx807EGW5bgsVmeR3daAuJbgvSYFYqEN2Oow79BCI9IRhgrxuFvHOE1Q/pJSHrciprDtuD1jvCJ4AbAwG0TS9I/Tkbxq885ERz5GH5O1rSbjddJ66CoKTiBhx1U4Q9/V9pNmJ+MGPjKX+h5RLhcfQIKEVjCM8s6/L1nwLXJqHn6/RjQ46V1UdQM7Vb6/0o9/FNfvHF4SzIicKbxPi9zYnCdJdxDWh9FjeAM3CNhAJyBs5MRgTVwgTfDSPi7icPSbaV1UtQEHIoSuQEYXGsXpX+dVBzLF817of+kKfietF6KmsAZtDI3gGyjfy6pOJyBY7zPDeETmjasKAVZtZ+YAcAHJpakz0gqCg5nWgN3eZ8XwuXSuilqAkdwopQB6BqBxkeTioLDmYHm5fvSuilqAmfwAEkD4Ax0qpoK6wxcGWROCI6V1k1RE0xS41WyBoCl8b6kiim/geajbdIPSeunqAl6SSwPSxoA9kMkFYM16T7BDADhLtL6KWoES/BjUQNgcF3bpK9OKoSQhVN1qJhURARHOCZpAHpG4D+SCoG5DYLMBeG90ropagY71tgpAgPw+IrF8/9vUhFYwu8GMgBXSOumqCcRyO3iRoDg35KKYDqmHz8Cp0nrpqghLOE3pQ2AI7i/KolBGa1XmHloSuumqCECJrWMXGJQFjkJRJ7SbjbmSOunqCkZaD42G88GgHAy9sSgjDg1kP7tZvoyaf0UNYUj+KS0AehK4wNJxHAGdg6jN6y5dsGCP5LWT1FTMF+9I3DiBiByT7ht4m5h9IZ2UrViqCbu5lrwrkFk1cK9tpEes2KwpiDrpI1AzH0FOwbn1b0IyC1Ot88RCamMfrWGM3C6tAHgTsRJpLAEh9a5CMg18W3O4B15dLSUgvT4FbNgRWvvv5CjCuttFINrO2P44iRCcL5CCJ07BP+cRA7Hbc4MrMmvJ9yzcrzxHGk9FLPAEn5Y0gD0vohfTCKEIzw1hL6TrfTNScT+IUvwdT+6wnnS+igGyA60Bn4hbAQejtFx5AjODaEv37ySCDFxWLqtJfhvn7qyH0VaL8Us4Ji0dG5AjG2zrMGr/euJdycR4rYl7/8/HJXxrq/BB9iRKK2fYhZYA0fLGgD8XWytxCzBygC6Xp5Ehokl6R87gz8KtrYGLpDWUTELOofsvpUkc3C2UZq4bxIRHOFq73oSnppEhPVp+rRgFY+bCOwnratiFnRa+B5RA2DwN0kk4P59QfQkHEviYok6o5T1JbhfnwIVgCU4R9QINHG3JAKsNOkLQujXaeL7k1icv4Qnl7q2hBdK662YBdzFxxI8JmcE4IdJLG3UQ+gXyVfQERwrsb5KhFoBhEqAGegrYXBdZzx9pfQcuBbsOaoRAEcwLri+D2qCUOTgkFBAIoxKsOVwtp5/AwA/ltbLGjxImhKu3ZyztfQ8KATpsAfZJBNj6XNF9W+hCWDYjpEmg7EEfxA1ACRvBBWVyBCEoyT1t4Sf97/55QpkLOEejvBJycPvMh8ALpSaA8WQaDcbrxP7YhDe21ky/89HiTtxRQtfKqFLu5W+NkhOgxleljfn7igxB4qcYB5/qc1iCT8hpbf3zDjC1RIUaBzVyVvS63wLgStbf4UfDsEHRQyAwQe5QEVCb99FMfyckin3ls3udJvK8Uld39NJhcEU1lKbhmsUJHS2Bn7rVQ/CLwlEcrwXM7kC0qHGu5O6gfu/MQdcj176Dku4nKuuLOH5vXfm8dbgkY7wYKbpiq0gZkOxiByH4MMSPfR8V0eWSQLSy+8/X/rAu42FcDXXmyR1wvWL9vkzS/DL4SYLHuGCEf6/SUTg1t5Sm8ca+FyZuq406TO96zGWvqas8VuDXxU/8KbmPIFM+8xprfktJrQnqfGqJCIU0qeQAcDfl5lCy956rzoQPlHWzY4dpxEc9vVbzkH6L0mtevD5Idx8OCZyRTs+9+XFeOKKGAE4oTw94S2eDdh1ZYzbGTwgBqZnt6X+6zo0/3lJXeA7icQSnBKLb8AZOE5oEz0+eQQ+vxQdCf+xahwATK8uzerkKlDmHRxc7x1kEgmvKusAzPY+tgbuEtpIXy1DR0fwkSr1QeR2687AbdIH3VWE6CVsrnXQKxjc0yZ4r7Se1sCBMpsJ1rjWvB3C64dHVoUFmH1NEZC6rp9BTkrqgO67Mfz7mFNzeYNKNtbk3+Z3rcSGYsrq0PpZA1/2Nl6Da0NGdCL1+K/vrhVeFcvTNTiY6aXUCSa4SJJe2pr0rSIOJ8InQ+fUe2VFCtgHkD3r0ofc9Zc7YiE/KQWTrfQlZU+yJbhVsreeJTxTYnNZA98OqZcjvDb2scbs9HOET3JSW1IndLOvyqfSyggWhEos2cJniUtl68zPoLHGTqH08urkDEACylwJTKMuftBNP50bH0vqCEd4o+DEnyGRPSiVeMJU1iH04XRVn08baxrvrJPTzxKemdQVzsDZopNvYIUjfEXZveQcwarydcV1TNzpWx9uVOpznL6rGWN2+jkDN8SWwl4qLOGn5BcBH25T45/K1Jt/T0JXLnjxrovBt3s8ELf4HJujdP8I9tf6aYXg/li7PNeCR2+Lr6OBE/i6WJ7u8BMJXX07QTlpxds6EJxTB6efZdaoFuyZ1B1MoRXXwuDPOUusDN25cEmCc843yaQzuDg2RqPYnX6SzE1RYWJJ+oz4ijHgNo7Zl6G/2Pu0iW/zpYMz8BVf4+oY+Ac/XAz+u/Y6f4f/fMmktOjgm0nGixA+yTTXoZmJMvowgocEdPTWcdca+IG3cXlIhInc6ddZtXCvbfzM/IjAGvyG/ML0NQRnhW7K4Ax8XES3FrzLx/gt4fWxdAGSq7nAQfbS6hXj8Dc+5nykwFTWGQVYtAsH7ZCttzIuOoH3Kued+xi/M3hfDL6JmJ1+jvVrIfqY75FEu5m+TIpJdzAjgKsdQaNKbbUGkoKeaI5hx9AFKHann6sru++wpBLxOQQ3FQ4VhqjW4rRoTgopXx+8roifo8t4JPuFjN3p5wxcWWZ4udLgr4D8gs26oL9evmjeC33rzimwMvo0PpB3zExb7WsceSsWY3b6WQN31YrayxM988kVuAnc5TtnPUh3ncFkWd6wlL+nCzySZwwxO/2swbW2ibvlmdfaw7Yau0f+pssWmD34PmO6bZO+uvt3S9Ynp3/DFxNQHodk7E4/R3hEnjlV9LCsNe9ZjvBb4gs5q8DPfGYPOsKvCehh+faVY6yneprDrwzr9Iua08/ADzTZxxPYU+0Ibpde1BkXnPBuX7nd7WbjryQ4A5yB/YYdK4fuvPx2CxcMRa9G+FPpNXf95/EWSeapkURnPP1La+B7URuBXkGRjyiBI/hk6ToQrBp27Fk5tZffTt9QsQrS9dPuAYLHuLV4rkVXDFY9GHW+QHcT/LJt8EVFayREWlQP2Y2GS6kLz5fBtZwMNcjvdVr4nqySLoJ1dh7mT5Gzf3tsXVyn2dQPFOUY4Gtx+WOHWwa9BfjqB8i3iEGfRlL9FQZc828UWW/FELh0ya5PdwaXinjMhztQpw/6dZs2OUiAMs0aPKjMJKBBSEC7cwEXy68n9pNleddZUQAcZ43ZG9wzAjfkpR2T6DDM1ZmDtKVuE+7i5fcIaNZ1Nvhp+XXEPvOFDzLDdZ71VXiAPXzudtH1dt9yk/w+LxOxiMeb8ODZxtVuNub4+C1+18+i/x4xv/s7BuflWVeF7+7CLVyQtcWOYFP0Fzh72HpwZ2Dn0g8Awe23Hpb+aRlZgCvHG8/p/xvzn8ft3SJez68Ms5aKcmi2JKnGBzlcq4bl5bOE3yx7nLPdWPw0dYXbZvHzXC6+Xv1l2WxGUiEAXhSOx0ewQWba+NwTcemg2WLMlGMJHy15nHfM5NjyUbhlCS/s9/ctwWcjXr9H2Amad48qSkDHwAeZell+s8x4AM4fNGtMxhEGi2YYz78X1x/+bbq/zVmVMReE2bq07646uGw37lrxrtfdGfj72XRhajJLcGfJBuAeTkqabjw+MjMtpbD53508Ap8f9buf8Gu+9qeiBDAZA19XY/Ykd+nBZ68stKbx0bLHxs6+6cbiCC71zQHQbeMVb5KXJVyu8f6Kgqm+mZVVehPNbAjg4pkqC7vGDG0MPQXZCVZMV1y9ucFzBF8UX4P+8/CoknqOgIPQERwbdwYh3DNTZaFtwt7lbnx4aLr04OK1CnCleAHUMPNg4MBQ+1JRMrpkEp4q2QQqC8tOi52O/cgRPlHw755UlcPvDP5X6D2pKBncpZdDTTHfBriykIufpmupVq5PA46bplqxoG442c1yhCul53kW3Tuhe0MoBOFajTeyc0d+o/U5KAYfnK6y0BKcUto4CNpbRFcimJsS5v7xjmn8bakbUlE+Mu9zC42Ha23AzQgnbOw0mzgs3bbMcNnGBS9MeiE9H+XMeeOjYptSIdatuJh3O6QQnLtxXL7UFGFqfGzqd7mAZ+QPf5/oh2LEkTWaMHBUL103xo15PV/B+etUcvHTj6bmyLXSudLzEFhu1iaeNQe//Xw1vvRuBCTosAmf4GcHzw2XC0vPQUg9h+EoVIy6b4BgScy+gXIPB3yE58UabImPJZBYwsOl950iMtixxk7cR096c0qLNfgrbivuDJw2mvrBBUV6JSpGGFyfzpGCqLvRqOQXwtVMPCq9zxQVIB3JvoTSG1bFq/CzRnpvKap2GyB4THrjqng4/AQrOTM0qRHc4nT7bji38T5tY5YTnTF8sSX8ufQGViloAAzulYwoVi3ca5tu4hbsx8lknH69Oa+ENXATU8DVzQh6AVvPbhMPiX5+KoWF4OJkRPJXJpkT08B+3YpXuIBvNsMwK/UMw1LNgcgBJreInX1IZfPDj0/yoUkqhM4hu2/lxtLXtJswPyO6MXABJy55pVAjuN8aOPqmRfs8W1rfSqHbuRYOFSDwVMkhlvBLScRwXTLYPdhBaQnPtAYmuuxRJc1PN9P0JL0R5OtfeJn0BleZUe6LpY33tQsW/NE01/eS+R/7CzfllZ6jyiHrZ2ewqZGCOGXQHoi+MXkEPr/TxPc7gnEmGmFimpg5KbK5IjxZYq5GAp3x9JWO8BrpRVTZaEMbmOBQbui1bzOTs0nfyh52R3hWTF/1IWVZ6Lka/bwBg0fGWmFYN2kbfHuQKlJK39AtlILTmbw15t4GwwizT6kfwAPaJn21Jfhv6QWttRCe5WUtm42/6hj4B36zc/Qn/r6U+YVvLv34KRV52Yf0NiDVpflFw67ZSpM+s1sEhUu7Djq8u1bz1qeDk6IAutdFaEsvbq2E4JODGGjOnMve7QZOZ77IUbnKu5zX/+mIaRW++hQYPD7qrkUjInyImUlp87wNDr9x9yP2dGfPsxLj7K4SAj+UOyE1AfcG5LRN+cUecSG4iEOzbHSdwUu46Yn4mEzc0m425kifj1qAe85lSSB6G1Ax8TSu5XwW6bNRK3So8W5LcKv04quoWINHSp+HWqKzZP6fl9r4Q0XFbCbsC1mcbi99FmoNfn8Vb8KpooLDCYEb+OvPqY4dAx90TXxbu5m+jGOmwU9GjcAFK47gP8U3hcr6UZWsHoHwZEfQmKk9/SbgDjVZ6GSaGCkTZ7IDwRn4NXteuZTREZxoCT/FtMvO4AHMwsLeb+65zlcNdoIFP00VhqUUymwFpjKaYvm8Et6YnccWpivHG88ZejO2m/AOJiHwPjiunCO4vdes83JLeH6v/dXxlvATnGfdMTjPthq7c1PP5c25O/IXsi6cZhNj6XOdgfOkN5EKViuRh/B6pgNzpvEBe/jc7YolrkQaqtrEeGS52cyUAqd3Fcelvcyu/Th/m58tnABS1QIHttxczy495yoYnXBpcZa9SHAK7xOvnAfZV3j0Juz3PUcbV2/9KutZT3iWIzzVEn6enSFd44EHZBa0ibtxqmhGCHr43O2kiiT49uMM3CI9fyoovn+twautgc8xz0BQH5wzeIa0wtEuAuHveCGcwe8z1VSX8AH2Y4PBnAAc2gvxJMgMVgRzoILl7DPeYwQnZunLY42dyuA12ABHeK30JFRb4JFeAdAlvZrxz3DbbY6itAl3YbYYLkYZak1a83aQ10vFjdphnw7W4APSEzPq0ouq3MGFKVnpqcGvdp8h6YdcC/bMKtU2Er76SY9ZBUfvsE+HUe4Kq6JSjsCabpQLTmffUpZHc8juWyVVAHdO7fGQRzCRKioV8MgbvC76L/swWNaa96wQOQAqKtUXWJP5yQiO5XAzn5VkFGFb8HpH+IT8hKuoiMrDvSjMUqYMq8xV3gd6sXHpBVBRKU8IbuccEd777ICtSwZqXzgDZ4sviopKIOmyNMHp3PzVKi/e9AVBSmypMjL174TXZi20fafQjjI4JdYRHtErUtHadZVKSMYHmHEEwse5KpXrXKTP0khgpUlfwBbUEny219GUk1kuy6wr9ysnvFv75alIvd+7mZeNv1WuO2FwyuvEYem2WSrrWPoaJhThTDfbQuQ3lyMcYx53R/AFLszp9Vb7sSW8Kqtn5kKYrI85Pi6+uVRiFOsIv8ZFXJOt9CXS+10RGBxzZXKDbm487Jw13mjBu5hWKyuf7RqVg7krjzVwNKfQZrx7hN/KjIuBn1jCn/fiuG7KwDjC1RFsZpVBE2+auG8ukguFYjZwRd8mhqY1bwe+TmZ5+YS7ZO2j2OhQ45+yZ1AT980MD3uR2fBkLcFwadZPzuBnsprtjY0Q4Xe7cWW4kjvYcoWhGqCh5RJH8MWsGpPS/flWyR8EprrSa7+ikuD0UfZKs8M1KwBq4m5saKyBA+vctmpY6RHZ3OEM3MAdb6zBbzgDx3Tbd0Mja9AyPvflzPNQq6QeRXVhCS+UPlijKl3/EtyT5QNQ9jS8lG9ohcXAD3rl4MdzFMIaPIg5H61pvJNvKx2a/zzlyFQMVJzlCFZJHxQVFKG546flxhR33LK88sVGisHRIXiT9CZVwRhJQLl9uc18SRmxLnyd6e2cwcVsNNoG3y69dxUFkTkataGoiskn7HDWaEkF0W42XpeFKyPYRCpYackYvlq4QHpPKwYAO4Z6YcPoKNlVsNLCjmTeX9J7XDENrl+0z5+xw6dHXy6+WVRwJEVvA5GBa82ZVlwLrFRcmUJwEbNTS+//WqNN8N5uvUMEG0KllreBSWq8Svoc1A486d0SVflNUD2BR7p1Htji1Opuc1rpMWFlhXMPNBmpJNy0aJ9nM/9/RkoRweJXtb5/8w2btW8j/LAaBMwnhF+TOxU1APcV7HLD44Piiz0CYg38ot2cs3W/+eZMuR5XxSmaQYmDzWkT9y33VNQAWX+FbodfpVf3LYRXDNqHUQ0CDiDwCBdIhT8VNUHGU0B4hfzCjrAQXstkM8OuzQaDwLn2GT+gVlq6rixTyrSC4NBKt5BDN1UZwh15ihJ7sm+Gi20y/gbCK2reC+Mkf6ehRli1cK9tMvYhQeoyS3Anv+Xq1ko8a7B6+NztfK1luzln604L3+MMHMU8l7VKziK819c81obzkCnIuJ5cdvHg9KkvoTN4hvhGKl+W8Zc8mBOXcJcezdwFGYWcvL6h5PIQcziSyKjBxBN54DZrcK+pMU024e/YoRPBRipfCNr8vi9n7eftkNHAMeHHCDkW2VFaxvxVGp3x9JXSDD3sY+DF2jgcljm36h4HJ3ASBS/tEXEsWoJDy567yiBbZK7UM7hWdJEM3NRuwjs2HducrS3h9dIbKAohWCXd4uumijoW2fchOW9RgjPPrMEjxa/WWQYhHLNqyf5/svH4mAWXyS+lN09kcnPb4IuSSNCO3LHIzmtL+CVuAyg9VxEm8sAt0gvEDLfcrn26cVoDX5YfX3xiCW6NtVnIpUt2fXpGM58xFXMnI7xXaF+t6TZGnbeD9JxEBeZT4xhzBJuY26st5mhDn3Fq+/bZWoUZ2DmpQFl426SvtqbxUWvwO1mviPC3ydNiuiVFgeXNuTtmFjmOSi1uj/aKfmO1hHtI+yMqIYSrO9R4d1IxtAM4FjOmKcKzVrTwpdL6RQVOKe3SMPOVSH7DOgOH8Feh33i5U5HPbkLc4JX5CUbVkchv3I6BDyYVRmc8/UvbhL2dgeOswV8NU1XaYxE+s91MXyatR3yJPNzSq0uxHMNGvYxvITONmdtf8fvW32/CBOeAd52JeJ/0HASc27W2Cf+ajJRzOn3rVIJSRve1pc7r+N/4gyE93ujgCP/REk5Kb8xMutllB8w2ZvbScuqrt0NB+OgUK4xrNd4oPg+lCBzFDt5kxHDpkl2fzkVo1jQOcwa/bw18jztyS48rOmR99wxeJr8Re4eQ00sXp9sPxB9IcK7X39+IIJLbV0nPRWlzTvB17a5Tx0q9jDUmmiytO4Z5l/a6vnj8fTh7k78fkVEsRQjO1fLXmlBuZy27Y2rBnXliBy9j5Xx/n4aLfQgb19JncyRYySglluCXPisJFTFSbmex4FgOPqwaNt2Sk1m80okRPmnH4S0b/4ZrwZ7icyNmBHC5UmSPIiOPwWXxbLIsDDN0qiVfUf2H5uDjW8yXwc9Iz5Hw+tzKRV6JYgTCegaOiol51xpYwfXkefRhxlav4yG4lMN9W/yOgfPy/b0shfWAjKY7grkuKPflXSdFBGALzhlTEWyknsAaa+DoziG7b5VLH4J/9jyee/pFG7iWPqcBOGuKNMMZ6JQwr3dwinao3omW8FGu4iu6FxUlgmO6vWSeR+UP/YbDdgN3+M2rU5YX7lGfbkLIU8QhW8aP85Wrcvbk1N/pVrsFnleCY/m3bKuxO/cICGIEDK7V/nkVARcz8LVW/sD3Ng/BYxxxKBJjZrpr319T9j/MWP+Q+0DiERv/rSynIej84slTv8VFPj4zIjczAus2100RGbJS3Zj42QivKMqtnt1mDJzteVw3zhTv7jTx/Xn/dtukH9qiS0/AcGJWtz7W2Gnq9ybG0udmefHB1hROnKkmQyHEtsKpjuIHfmpTEj7KX30fG6WXxulxfPDITBWF2W8SHp7777dgz83/HpOWBJ7v69nnMPV77GPhBK9wvwfnbE7CohBCFq+OK65/0UqTvsCPbo03+qaO2vwLPR2yfoV5/34rfW0fBqX/CWwEPjUNeYsJluVJcOlKkz7Txzorcr6Ls9ZO0gd+agNy5ZVHRxFn5flnHto01bcfCvlQ+kQV2k2YH3QNOMzbarxx89/t1s8HotsivHGQmg2FZ9gm7hbK2ZPv8MMFPumnuxmL+COvYyS4dVlr3rMG+X2mFs83D7iuH1NR9kUOX1tgp/NtdAjexOHCMEYAVmlNfUnIsuAMnBBP8c6mHPy+YAmWeB7nGj4Eg/x2xiace37hnpn+NpeilsBYdPx0v7180bwXhsoEtYR3T/f0UXhvrpkzOcX3gmcHBE7j9l++9WSqKu9JLQTjg/5+t5FI3nmBidn+vjPwlaBrQ/AH5m/sb9zgB4F+96F+v6soAI6f9yr3YuFRvzkUnxw3sPDNRMTX7ulSffvBtdK5+Q8B/nRA30bYtmkEq/rVWGQsR8zNH8IIGHycSWWGXXdFH3C4yhn4dTzFO3BKKJ70bs0CXu53zHj3sL4JZ3Bp/oOH3xrkN5jpNvh6GfjyzGOAA0PwPVqDaweJtCgGqXfvUmDLH34DE4O+ofPCEXzB80ZcN11MfjZYA9/O/7tw3CC/wV/h0GSjbLA7zXTXGXVt4m4hEsds9oSDQ4ade8WmXn75w8+hJYJj8xbvDIp2szHHt2OTW5PnGUuh4inCsUF/h/kHSnDm3jzbjY25FYL5lqhbp6AYApOt9M3iLbe6m/kaLsApQV+/5B49Vpt+4bjZUKSgxjZx3+F+C88MvY4z1Txs4pcIVD9iDZwwioSjwcALJnnws6QRwrFhHGd5EYLcgxOS8jbCZHrxIr89LLMROz1DG/vedfzvZxtLr3z5tDBjwG8q4eiAcAT/KWgALi8zqYOZaL3r0Ern5h0Ph7GK/HaeGxNX2JWwrrM+BTaag4UhuAWsgQuUcHQAOIKLyz74vRjuwjKrvBzhwQF0OanQmFq4oMjvc6eaYX8z+/ISuOBrvBFPwWzIWqwF4BawBi/jFPahF6ZOKLsVVdYlheY/r0wdmWbKd14Dz1vRCjX24uceA+GTeQ0oM+4EX+cBnwKbtloLUWQGv1bW4QB56DkOzN0dg/PK1o/r1b3rSLjax9PFGbwk/xjg9mK/DT8sYc0nuTJx0DFx+rAlXO59HAZWlP3RqQR65Bfhm3ESnpXnuuolq5Hw5/51gv2Kjo2/3oUiAAavK/L7vVz9h8OvPXxxmHGtWrjXNmEiBHCLduSdbrLDLv7tkqma3W7DfnViR6K/rMsi48ALI/WLFHoKPBUhwDO8j8XAXdqkc8uvgP9FZwJMglMkCRz4uRFgA63gDj4+xscxfGlD1CuD9poOPb1AZ5inwIbbaYAaAs4B4Y6+2Y8oul8Bn2EYS7CSMwsldeLwmO94d5Yp6bHTK+fOF9zIn/YxDgrA+W8AAAgASURBVL4WByPwGKBseNZ5Ivyw7x4TGa9hE/b2MX8jgexrVHCSQxfvDPOsCdJynOAjPsdpDV5dZDwcRvU2Fq7+jPApMIU2wXu9+yuytPN0/w0/UncUKgZiqiZK3yCtQ8aCQ3CO/w08GLXXoOC04aJfXdtC9DWeXl+Ca0owAivzfiBsC15vCe4M8FQ91Nc8Vh7dZg/TN8PIjENWxJGFj07i9F1urc3MLHnz4H3DGjwyxKb17cvIYt4Fx+WbDIOpvsuJCMEX8o5xOYcJC96c+shin3NZabCDxBr8D0v4CWvSfbiKzCf/XihwKa5/Zh98gr883sdK6b8UNkwF+x9MPy74ZGgDkD0VN+uMnKP35HHeqzkJP69FRJXuTpQ1yfS7WU3jsBDjdYSnFh1bCHq0bpow3liCEVhZNJrS6WYz3ud3bHC6FhFVkrgUr/O/SfHCUF+EounX/BxLAoF9OSUQiQ5MZjITJo/A51vCqzyP6zxtQlIhhKjwswZ+Gyp/nDdX4bc2waokIPg6HNoAZM+1Jr7NjwMTjvX6JCC4lAlN/cymIhiYBsr/4ce17Sa8IywBS+ExXp0EvlWV0mqcwPkq2W03G3P80o1pEVHUyA5SCObiwB1pHTU+5uHgnJsEBvP7ldEPgm8bvsa80qQv8Bkl0CKiSJEx6QQoHWWa7dAcBexoKj5OOCUpAdwKPLgB4BsX4S4+HZnWJ8sV4RW+xqbwlUQToMKPC0XYsIQeP7fT8jDepUlZ/SADNxn1/RTYOLHNz5MA1gxbx6CoGIdhRmkdqPnINA1WC+cqWIMHJSWB2XqCG4ACrMqlJA55cFYqIq3w622+o8sYf1EOwKek8YGkRDDJZikJQgGq9DqH7L5V0bJwS0C+x6XIkaraL01ZitJ7WHD6tI8x+3wzD1Fg9bvQRqBft2Ef4Oq/rKV8vj1yjpdBKPKB22xbAzd533AE9/M1sSw9rMHveBl3a94OScnIwmzhDcB6S/DZUDp0KcfglznGdGeoMSkGoc4K0GGWQ1ycTlqmLr7YeH2RkgwLS/jd4AbA4NqQbeF6iVjDdUwmuF+zA4VQqHlmoKq0POCKQh9xdeYRTITAvI6+uymX/RSYAvtRBn4SEDQ2/EdFeeDON0Hy0gmv5XhxmbpY03inn/FDJxEEE6JW/SkwheXNuTtag78pgwNSMSQ6Y/jiQJ1kH+K/XbY+zmDTkw6Xlz12EUpxE/YpMAW+2luDX+2zV1ZqYxEBcOKFM3BDgE21zlIK1W7B5pedKA+YH8IZuCe8EYAVZb29ucUb77kNkSbCJ8uOtih6CEEJnW2oFhopnbxFMQhOTCIAh9VCGwDXlc+UrZtbnG5fRqdqxTRgssswGwmOkQ1jeiqsCVysNAy4JiF2BiFFhRCqwo8dOZJ0T5xm7E8X/HAS01Mt44kMfAsgaGsYbsQRrMLP4HfK7EIcmna77NyF2TDZhL8LUpZtZNOfFSWi1wXmIv+HH37CueDS+rHjzpdO7WbjdUlk4Fz50Aag7bEPgiIy2Cb8q/fDT3iVVMbc5mAKL283gAgJKrotxuBnVSEOUUQEuyj9a99dX5h0kx1vSQSYOCzd1pcDkP9O2QlMw3jOQzAzu6fkv6R1VATJ88fL/G4U6KwcbzwniQS9tlZ+dCO8N4kY/E4PZwDgSmn9FPFmx/W+kPDbMqv7BgF3nfGo30QSOZyB00IYAEtwq7RuCo9whK/w2ZWWi1RCdMspCmvgex6/gj9LIgf7XTzRnq3f1PjhWm3aMUKwhGd63BwP+Gzd7RPOwC0ejdyZSQXAkYoQfQY7ETpAFTnBbKueDsWjsWaKcflslUuYi8AabPk2AJOt9M3SeimiCo3BGiatTCJFr3+dtwNQJW66LDRIcLFX/VuYSuul8JT4k7UbL7IZDK61LcQkYjDZqN+vIOyXVAh8ZffZwNMSHi6tk8JTbLzg4V9nDRyYRA5uNOLTAHBIMakY+KvtzQAY/LS0PgoP4FLLgpuhmVQhx4HgIZ8GgJmRk5o2cLUG12mJ7oigSHJMWRz+ERi5LeSmRfs8O6kgstBgcULU70vrofCEyVb6EmvgFzk2wUlJRcBlu16//gbXrk/TpyUVhaP0DUVCg7YFr5fWQRGA9NMRXjPgJjhDuqx3GDjCUz3fAO5IKg4mMxn64BNOVin6ocgTEeBGjv05AB/m1k5lde/xBUd4o+cbwG+SioNvMJbgUO6QzAVbfW8ElPFCHM+3BukxK8p0mrUQp9JIrcFfsad/Ykn6jKRi8NUEdDP5UTJiYKPuDOxsm7gvNwflduTWNN5Z5aeOoiB48Ve08KVJhWGbuJvnw88G8RvSeikUigHgDHx8lEhNFQrFELAGLvB+AyA4VFovhUIxAKyBu7zfALQ/nUJRjRyHQKSYb5fWTaFQzIJ2E+aHMABMoCKtm0KhmAXW4EEhDAAXUEnrplAoZkG7OWdr70VABh+X7GykUCiGgDXwZb83ALhFWieFQjEgljfn7ugzE5CzIqV1UigUQ8AZ+KHHG8B50vooFIohwFyF3m4ABKdI66NQKIZteOqBH79Lf4Z7SeujUCiGhCM82MMNYLG0HgqFIicVliW8sMDXXysAFYqqPwW4t/2wdFhMmdY5ZPetpMevUCg8gHP5mdZr1sNP4LirzqqFe20jPWaFQuG5VZg18JNpvPyPOcKzXAvepRl/CsWIMx45g0uzRCHCa10LF3D6sPS4FApFiVjR2vsvpMegSKLE/wdPMJ7Qu/hAgQAAAABJRU5ErkJggg==;fontFamily=Schoolbell;container=0;" parent="1" vertex="1">
          <mxGeometry x="589" y="148.95" width="22" height="22.09" as="geometry" />
        </mxCell>
        <mxCell id="sAz0puc__kFBI9K-MMxM-5" value="OpenAI" style="rounded=1;whiteSpace=wrap;html=1;fontFamily=Schoolbell;sketch=1;curveFitting=1;jiggle=2;container=0;" parent="1" vertex="1">
          <mxGeometry x="580" y="90" width="170" height="40" as="geometry" />
        </mxCell>
        <mxCell id="sAz0puc__kFBI9K-MMxM-18" value="" style="shape=image;verticalLabelPosition=bottom;labelBackgroundColor=default;verticalAlign=top;aspect=fixed;imageAspect=0;image=data:image/png,iVBORw0KGgoAAAANSUhEUgAAAQAAAAEECAYAAADH4+pwAAAACXBIWXMAAAsTAAALEwEAmpwYAAAgAElEQVR4nO2dd7RdVfHHvy8JhCRIj/QaCSahSO8dUUABBaRJEwiRGlBAilIEARGQolTpioAIGJAqhI70HghESkISSgghhYSQd35rfs79rcf7vXvfPffM7Jl9zv6sNX/Byjt7n7Pn7j175jtAwjPzAdgAwH4AfgXgUgB3AHgOwBgAEwBMBpCxTQPwCRv998cB3A7gMgAnAdgdwBoA+lkPLJFIfJV5AGwC4JcAbgPwHwDtHRa3pNG/+zaAmwAcCWB9AL2tJyCRqBqr8oIfCeBzpcXerNHfvwfA4QC+YT0xiURZWQ/A2QDeMl7w3dkbAE4BMNB6whKJ2FkEwFEAXnWwsFuxJwEcwjGJRCLRJBRwuwHALAeLWMI+A3A+gAHWE5tIeGYzAHc7WLBaNgfArQBWt57oRMLb+f4RBws0lNFtws0ABltPfCJhyQC+UtO6tothR3AVgEWtX0QiEZI+AM4o0Rm/qFFS0mEAelq/mEQixDl/tINF59GeB7CW9QtKJDSYl1Nrq7rdb9a+4CSnXtYvLJGQYgiAlx0srpjs3ymZKFEG9gYw3cGCitGmAtjJ+gUmEq0W6VzvYBHFbnRk+jWAHtYvNJFolq8DeMzB4imT3ZlSihOxnPffdrBgymjPppyBhGfoCutjBwulZlMAPMyCICcC2AvAFgDWBLASgKUBLAdgBS7lXRvAdiwkQv//1QCe5rN45sTe5OdNJFyxEYBPjRcH7TwuZwUfyjJsExob/TvfBHAAgGsAvGs8TlI0WkVobIlEYbZkWS2LxfACgF8AWDHwmKmg52QALxqNeyLvYhIJU9Y12CJ/wuIg9KvsATpSXMxHjpDzMK7OcWBujsWQY96T5cvO4iPNTV3YnwFcCOBUAMP56paOSksZzGUiIgYFPvOPAjAUQF/4hERDjwDwXuBjz64ATgBwI4unfCH470/nFGVyFMcD2NTx/CcCsnTAD/1NDuDFUixDv8A/cRAr0LIvOFPxPADbJGHU6tGXJba1P7RJAIZFnBffh3+ZPd0iaCke3QhgDwALWE96Qp+/BMh+uxJAf5SDxQHc4mChhrBZfFzYSvAWJuGIo5U/oLEcgCojdFb/0MEizQIe3Y7hzNBECdgYwJeKHwz9ciyIckOL4T4HizN074QLACxpPfmJ1pmPu+5ofCCzWT67KlAw87QKaiPMBPBHAMtYv4BEfq5WDPSVdcvfiCUAPOVgUVrFCc4DML/1S0g0xw8V77BDZ/B5uBk40TBz0pNNBLBvChb63/q/r5TUU7VMs10AvONg4Xmzx1OvBL+cp/DCX6xYZPhbAB5ysNC8JxcdH1GyVyVYRTitlGwM34tXgYW5JZjmzUnZ7InUZdkPDyuUsVahP95c3NTUujw6VpvCqd8JQ7ZRuAsmwY2yQ4IirztYRGWwc9ORwIY2hSsqKo4pMyThPcLBoimb3ZPqC8Kzs/BLvAjlZQEOlErHSpLhKzdGVbsuNkVS5eYVlggvG7Q1PQjARw4WSFf2Bbdgu4fFSij34FA+W+/SyUgD8ecsGnINB+ImORhD1sE+ALCa9UuvAlsKf4RroJz9DV9wsCg6qwNdzSnV6wjV6C8CYFtWCrrXQYOXSay+lFBE8hx7EsrF8gD+5mCxZ1xHQL0XfgZg5UDjn4eDw3/gqk2rTsrrBRpv5ViJe9ZLvKi3SrT1p8amp/NNhvXCf4ubh1pLg/cAsDXrCc4wECBZ33j8peQcwZf0PZTjNmQvpVTovDYSwI5OW4QtxMpHEwPOB2lRJlVk4aDWeKGXcxfKoXb8pIOFfz8/SwzMw4HRcYHmhrJKU6ckIb4j+GLWjrxM91oHtfrPsKxWrJqRJ/BWXXuenmI15kRBrhNsYhkj83AxirWA53gukfW41c/LogD+GmDObk8lxfnpwcU+w3jxSwW4YozQ7qSodpRHLecMAF9D+dg+wLGA8hgSTVSnUd+865USWEgrPiZWBfCA8cInu7UCRVILAPi74hxSzkm6GahzHtuF7/e101X3QRws5KRMdxTfq1eJoSwJpjGf7/GPXIK94bUB764nsdyV9zLd4dxb0HLh0xXWwRE3PCnKhoop1LehwszFv8LPG3zUV8A33+VfXMuFP5t3HmWXPm+GFblvgMY8U/+Fym3zDzPuRUfXiF7LdO8wXvgZF+UMtp4MZ/Tn685MQXhmwapE8j0ITX7Muw9v6bsnc3Tdcm7e5HeUqB8c1JBHvxQlh4JHrxl/3DWjXoGenOKBXD5qOSef8tUUdQpOdB+UlW42S4lcG6Gkbbm9NZqkBeeBTQJ1LW5kVEx1eUpRzc2i3CdC8l28WJKEqv+ljQUdrDPVujLrO+xluT219Tw8XFL9g1AMURBSpazK6FmKBRkyh0aVclb0Y7GK0OWonY1iMD9K6agifFs4P2NsBNfTDfkBiyBkTs0i958W2h6GohQ1I4WcX8X+gTnkZOH3RKIp0dGLJ8K6Kq07+03geSFJqEccjHsEHz0S8vQQbqE+ITYnvYhCUw4to9qCEFA3oasEFYtaNbqy2iDQmKvMEsI732jaz3+TZZ+ySGy9QNVk1segMpXpxsKBgu/v7RiajGziIE89r9G1pCZHGR+Dylym6502AA8Kvkv6IXGd2GMdzc5rXyoXtGxhXLFXhTJd7wwW/AbuhmNBCq0SSU37UHFOeiokhjRrL3F/hJh+KTfnncqNHECjeMmxXAsRO5cJvdd2jw59+4jbSr2rPC+hxxNjme5W3WQ/zmGnsJz1gxYMCE4Tesd0beuGLQ205ufw3f33BYqIqAuuFlcHnJMYy3QHcO17s2OcwUlTVDkaI78Tetea32wu1gqc1juZ7+w7/hIU1cEj3QEtQt31x1amS8HIMwtUOZJqzm4RZi0uJXhMprVnyjKCGvzd2VTuatPVr1tRB/Cs4hxpn/9H8y4oFnpwE88JQuOnPJPVERdXC43919YeXLL7bqNt7e9ZdKEenh3Ae0rzEmOZLkloPa0wFxRdv4QTz2JgdaFxa+5cuyVEc8nnm2zO4dkBjFWIfVwbWZnukoGalEzmG4MYnOILQmM2SeMervwip/HfaDbjqSoOILbtbh+OVodux/1KBN2IhsdaJryu8nUfvbxBOZ+p7A6gVqYbC20saGmp7Zixfr919+F6fF0oMehKBKQvB520Xtj1LfZH8+wAinSSmc6RctIFjIXVnRWAzeKrUY8p0I8JaTUG4yKll/RlwSqnsu0A2rlfPV0ZxcKiLCFmXeVYz8ay9oKna8PjhMZGu4kgyT4aQZzPWSykCGVyAE9HVqZLAbejAUxxsMibsUccyZ2tIjSmrbUftDeAN5SusjYVeL6yOIA53N03Fr6vfCTUsjmcl9/feP7ahKpmyQGrcrzSlY1URLssMQAKrsbAYM48tF7IEt/gcONeEP8Uip2pZvtJX+NQPvfGgs+YHEA43fsLODkrK5G9FmIbXYcTvXezvlJ4sunj+Z7wMyYHoEsvri78WPGX2FoYNeOipAEGx6iiz00NSlUYpCBksb/CcyYHoBv8fTlA9WKt47G1ZNpMLjYLdfU6UOi5Va45pTv3UOBFg+QA5BnASkKhqxf7c16/pYJSxu/txwGuDecSSqzLmzzXLesIX/s9qxjh9uwA3o/MARQt05WqXlxNWEevVXuMJdw1kRDPlYypiUUna0bbuuWhR3IAcmW6WuXdU/i6Km+hzs6GkmpZh2vDKxQTbh4XeMaiuTRfYSXhX3+Nc39HkgMoxgZKZbodF0+R6kXaOZ4gKKdVJG/lKIVrw394W2MXCk7agwHOUckBtMZSnHLcrph1t6ZwWfF1DrpMjQLwHWc3bXRLI3YGlErrnMkNQlBhBzDeoQPow3XznykG0PZWdPxrCRXSZAXtPqHg28UCz3IkHNb6D0UYPDsATzuANi4r1irTnc59IPsGilnsE1CSLmvwI1e0YlOiyI4cuggvC2ZXhWph5NkBeNkBrKFYpktb8hsCdFeqt2M9Q/HWImvSyNHv1eKu53wv9QBDBCckpIBFcgB2ZbrPANgI5c9byJq0J5qUsZPeARwuMYmnCk3Cy4GbT3p2ABOMHABFqo/gyLXGh/4x//veGlVuHkisNutmR0QaiIs1+czXezlujxKaAGoRFhLPDsBiB6BZpksKO78FMB/80osFZrRqF7ImbUqTys0jBP4WZS0WYjWhQY83aEmVHECYMt12CxHKElQvvs5Nc+vxqMDf+G7RyTpBaLBUSBGaqh8BFuRIdKjGrCOs5KgLJLbdaewEMr42HKzUO6JwvsW9Qr8QKyI8VXUA2mW6jWwa17LHpGC0A4toWjqBWQDO6lC911soQFvIIc8tlGY5EjZU0QFsye2/M2N72yDmUwRacMcoJkFlTdp4Tpb6psC/NbtoevKGQoMaBhuq5AAGsN595sweYJHLWFiMU3CtVYwlCp3GeJAlygybMHh2ABOFHEA/zrIL3Ya9lbZl1mKbXhKkskBGx/dC5OnPXs9INdiKMu8AenDk3TrlNY9N4mu40LdBrdLGPQM8yJK1YnTTYS5IUPghSuoAiuwAqEz3KcVfa2pTfY7i7QElhG2BeOjHyXAzHCzqPPaTIoPuK3QOkhb6rLID0C7TfbxTuupAoWSUenaLsiCMNMsCuNHBwm7W1ihaWinxEIvDjrI4AIrm/lJR+IK2uHs2KFghaexXlf42xS5Oa7H3oxWbcIv6zLHN5JuNltnXsyxxCRzABw4+khmcKNSMcmwvziv/ULFqbmjgWpEi9ODrujyOPKRRANO8AIhUfyxJDqC+jWhx+62dXUixjfURD/PyLYx12XFno11VIS4ReAgqZ7TEswOw+uV4TkgpdohQlqiWXmBV04oztsIdjSRqqA+FLZ4dQOgdADmcAxS22NsrVhg2WzXniW0Eq2eLKDCRvFshnoxM/KMrkgP47w0CKcvMrzgWbY0BcjC7IB7m4njGR0YO4HaJQUikIlJeuiWeHYBWMK2ZKjMtFmZn86XieOjoEVPZ8fkG3Yxop1cYiUoyqTbfZXQAmjuAVw272oLf+0ilsVHw8XfKOxppvqU4H10ZHZsKI7Gdo8QVS6q2A/iEVWC9nJm/zwUpVZIe624+in6TzRjtOLZDQaYKPMgisKUqDmA237jQFtwb2t17nuGq1Vjow+I4Eo0/u2u7V6j3hkTe8xKwpQoOIJZz8RJcEaiRxtzOKdLWO848rBygiclojkO0hESih3Wed5kdwJusZBMb67BEtsYHP413G7GoEfXkkntNbcJ/ttqJabrAH6fkCEvK6ACmsHJNoTxvY9pYrXac0kf/n8jUiDZU7MpEdph266p6Zq0EUyYHUMuOa1ZTPga0y2z/5eAbbJZFuGmqxjzMaOU6WKIV2FawpSwOYIZwN12PZbZaopy1AGnLZ+GA9OYux1op4Lluhx62FiQouQP4KKeSTtl5QOnDj02NqI3VgTXm4PQ8D3K7wB+kKilLkgOIB20HULNREs0yAnCswthn5YnLXS7wB6+CLWVxAJTgU3ZCOYCY1IhOVhj3XSE90EOwpSwOgJI6yk5oBxCLGtHFCuNu6vp4J4E/NNU4VTM5gHiwcAAdJdH2aPW+XJmeQurcHW1MM7kSqwr9MWouaoVnB5Cn2Co5gDD2mNPblr4Krc2Hd/dH+wmlbR4EO8riAKgwq+w8kPNq75aKqRGtKKy38H4zuwAJTQBqs2RFcgDldACkvwfuLaDVB/FTAD9zVFlJ/EC4loIayDbkLwJ/ZJzh2cqzA6CrveQAijmAjuq8H1REjegKwbG9152DO0zoD3VsNhGSsuwAKP+/7LTqAGosxF2otApr7uRGKdbML9yqrGGy3ppCf+QM2JAcQHUcQAi14llO1Ii2FZZhr0svISGH12HDWwL50x6OANSzvuxIOYAaOyjWF0wEsL9xExPJlm0kWVaXeyK+Dny24DPPVDz/JQeg6wBqxTXH8vxpqRFtABtWElQVati/41ChP3IZwnOl0LM/oODAJuVMqCo7Gg6gxuKcli7R7DbrZO2s/Guhz3CB0Bgmc65BlywjdPUw3aAkc3NhoUXqltRf6NmSAwjnAGqszR2QMwV7qskei9Iya1ItyXZv9IeeE/ojRyMsbQr3xOQtj+TmD0VIDiC8A6h9E3sqqRH93eDKW6KFX8Ztz9Wrkt42qMdeRUjerKvAJkVjQzgACsSWnVAOoGOm66+5IEjyu9gNYVlBqPHIlEY5AYMEJ2gYwrOzYjfbu1qUX6YS3+QA7BxAjeUA3BzqWk2JO4Se/TuN/oiUXtkEbqkcmnUBvKLkBCga+3tuna3hAGgHU3asHECNzQC8IPQ9LIuw7CD03H9o9Ef2FlwwVkpBdG4/POfiy2NU4vvTJkugkwPw5QDAx9PXBb4D6hAckl5CIr6UN9Owo8lkoYUy1Vjdljro/FGxaeNLXKjSiOQA/DkACDXrGIbwnC/07TasgrxQOGJqzSosHa3hBGpjHCDgAEgVuOyUyQEcjPBsJvTN7thdxFGy2GIv+GnaWDRtuFF8gLzzfJ3+Zp7dVHIAyQF0R0+hdnOkSNyQawQXx2RH/dwok+sXimmj4wHs1yF/PI8DoKuqspMcQHEkyvcp2N9tDrLk2fke46KKkGmjZE9zK6jkAL5KcgDFGSYUn+s2mekG4UVB7ZK9oZk22p4zvTo5gOQAmmGw0Pe5ZHd/aIhwLKCdm0V6o43VYiUFGFoxzQ/eC8kByHyvElfcmzbzxyRvBGq/cuvDJ325rJS2R8kB6JAcgAyPCjz/Ac38oQWFoo6dhRasW4o3YlkumgjtACiNuewkB+CnOOi3zf6x/RU+9gmttDIOzCaCFZLJAfyX5ABkOFzg+SnG1xQUvX9S4YP/IIK+7jU1Wtq1JAdQnOQAZNhR6GauaVZRKKnM+HixOvxDApFnK1Yb1pKJys6DyQGIFb0Fr2gcrvThf+4oW7A7vgHgJkUn8GB34o2RsjBnSubJLUkOoD7LCDw/ianmvn7QkmJuZ1lxyyajeaCa6teU5kJalsySuVkhakoL85AcQGOhk6LPT5L1LemT5dG6b0V4I7SmoNeyY8oiPEpAlsyy9mJ0gfEnB1CfuQSev+Xak+0US2xrNwQ/RDxolx2/wXMeC4OFZOaTA2hM0TT2QhqUP1d0ADW72VhPIC8UKL1fcT7uZtk2ryzI53yp7NHkABpTVCl4ihc9/kY2yUF3lla6u45RLjv2dEzqyQpJ0kfD5ADq00NAxp+OroXPIXmudYoYdf/ZGPFAc3NEi8GvZl/eEQbqy131ZHhRaYzJAdTna0LSdi7uI5u1ds5eWhrxoF12/DKArQzGtQIrIWm+7+QAGn9XRZ+fit8Kc0xAB9BRO++kRm2OnJYdS3x09ex2zlHQZl6+rpXqVJMcQGsMEXh+ka7Ymh91dzaO03RDd2kpejX2jnJ8QKOtdRs3UH034PtNDkC3dfidKEh/5evAPPJGayIeKInjVL6H1ZiPiVzqKRU4XQ/Avw3ea3IA9fmpwPNfDYFOPJkTozP2nyK7NtQuO36OKxpbhRRjrhNqGpscgCxnhRAGDS0WImFTOC5Rt/9ZBcuOb8rZxYZ6Q5zArcos32VyAPW5S+D5KYu1EFrXP5lQoQO1UoqFHrxt/0BpPmZwk0w6fnS3q3tb6Rk+z5k2nRxAfSTK07+NgtFgrastSaOGIKsiHvpxSzWtKDu1lhraRXxgEGcaar2HEXx1mPQAirOk0Duhup6W2dDB4m7WZvNxxVP2XHcM5EWjNSdPcg5Hf6481ArmvsDdbGokB1CcnYUKzQpxqIOF3Upa8aEOsue8lB23K57zSejloC7Ku5MDKM6lAs9O4y/EZQ4WdKv2StHzT8nKjqVzEc4FsECdsSQHUJz/aLcIbwbNZpuhLFT2nHTZsWSvBkm7swm15+QAirGS0LvateBziESKb3HwqzaL5ZE7N/WsctlxXhsFYJsmnz05gGL8Uujot1jRLalE0Gh9DkJd6iCjcGKkZcda3Y6bDSQNz6lYlBxAMV4VeG6KKbm4hli0w79JQpgjjZ0A2TMANkI8aHc7bqRZuEgLz5scQOusJvT+LkZBVhd4iGl1inh2UUxEyVt2TMqrsaBddlyzBwrmVSQHYNsNKJOQ29ta4CFoK9MoFfVEB6mo0zkpJ4ayY2k5rs5GkeedBJ4zOYDW36/EepjK66sQPxJ4kCciKEap2XsAdndadlyT4/pIaez0wRwHYB6h500OoDWOFnqfTbcDa8Q+Ag9CUexmWctYd6BjJxVPnY0340w7jbG2cxGR9DEoOYD89OEUbon3SoHjwgwVuoP3LkhRb2Fca1x2vDQ/g6aj20Dp2ZMDsPv1F9n+S6UB/7VAEdLpSn0K8xhF3Y/lKHwotMdOCkt7Kh91kgPIL/4pdbwrLAAiqUbyN6FfQev4wLssS6aJ9u6HSoXP5I9Nm+QA8vE7wfdMR2kR9hd4GCo99X4ODnk9Vg+SOntU8bmp4nB5hCM5gHzCn18IvefCxT8d+bGQjp9kJPwgrkCzdAJ0BXcR5+wXZQnesrU7lQtrleQAmt/1PST4vukWS4wdBR7oecizAFeiSXnNImXHh7VYdtybr92mKj0bKQ4daJjynBxAcwwXfOfjpRvMbiTwUHStocWKfIWVGdvrLN+cRzJ8TISS4XlIDqC55qqSitHUYdpdSWJ7gAy7bXkRWjuCf7BTqsfKytV9I1hhyAPJATSmj3BMa5zU1V/ntESJh6Mghza09TmSK9e8lR0vzMIMWum7r7GikCeSA2h87r9B+Bug2JgKEk0vacsbCm3tuzxlx4fwtmyS0t/4hBWEPEqfJQdQn+OEv4O3pM/+HZHYplAiDQxKKkN1NA5ts3lHIXELoUVyAF2zm0IlJyV1qXGrwAPSv2HFTkLaal7sfo4leCc5gP/Pdgo3V49oF6+dJrQdtoQq3I5XvHILYW/xtWws5Nl9VcEBbKHQI3I2y8apsovQw1KzCGso6eYaB2nF3msRikIFRp8mB/B/bK9U13E2AjBQ6GH3gx/WZZ2CzLHROfHKyJqgLgXg+hYcbJkdwN5Ktz+jNK79uqJHTm8uVRasDZ2b9uL708yZPSpZ0BGAPqxi26qSTRkdQA+u6NTYbZJDWQcBuVPgoWdwmavHHn2nOSg79q5I1Eg16p2C4y6bA1hAaM3Us1MQmF8IPbiE1pwWywG42Wjhx6RJ2FEwVqqIpUwOYCPFNO/aLVDnNmzqrC/08LTAvLMpFzCFWPgxqhJ/ndvFSd5ll8EBzA3gDOUEtPc7SewHo6eQWskXRVsVBxzvUOWy49j6EtAH/nOheFDZHMCWio1dO84Rdeo2Q0qb7leIBzrLnSOcvDEBwE8i60z0PQBvKH/cMTqAZQNVo7ZrZ/uFkgjPOOruMXe9u6rIOwQ+8rMi6004iBWdtD9wqpWIyQEsw/UmswLMjUnQryvmFWzgQddvMfJdvn/NO97bIutOXGs+Ekpw5WnFsTwr6ACord3lARd+rb2Xm1uhP8dQvaQMPfcRTXY7fgXAVoiHXvyxfxzwAye7QnFMbwoFry36VVzr7ai4reDghiFuFuSg2OhO45rDhTA7R3bUoUDWSwYfOdl6iuOaaDQmCTl9d98PPdBYwSuNIKmMAZiPizIGcrQ8JgYIVXy2atQpWpMZDhZzXvuTxV1/s/xScKC/sR5Mhfka9wiYafihf8j1A5rHtSwy+72nM39XLCYYBJnNGWWJcNCZcl9WkLX80McFyGdfwcGCzpq0L1khOAok+9U96/GsU1I24Ii79cd+Z6CMtm0cjDVrwqYGls0TuR+WTAWlWoOEHks6aa82mvUlQnGkg8WddWNvhBD10OBvgpNAlXhrWw+ohPThzMvpxh85pQ//zCBAeomDBZ41sJsC9WlUE92U3AWMtSp0KCEURNrVQYv1OVw4RAVEFox0sMizOipPB6AESPeufzjiBCEvrMHzaP2RP2Qc4O3tYOeTdWEjufS8FCyjIKRBcteJ/CzKGXXSktN57R2uG/FQ1p05so/5V9/1FV8rnK4wWSdaDyoi6Fx9tFADlyI2jXNEvCR3neJg0WfskMkxL4KS0odz+6UnjmS8E42hOoNXHXzkI7g01hOPOpiX+7iAqPR8W2kCxbudlgTqKnuvgw/8ac4t8FinYdk6/n4+glSK6xQmsp37qCX+y0IALlBsMtqsjedsQleVah04yGirfytLzleS/oplpNdE1hhDml7caDR0mW5nm8n1A97vrkOW7k7kmpbSRPaLsINittmjhvfJ1uf8l40Xfsa/blQ56J1vBMh4nMFJPDtGWP2pznmKE/+20zOn1od8m4OF/zJrBcTCyUrz8DEL4uwRmaxbcMgjPqVcNXVmiY8E87F2oGWZbu2DPySyQq0+ggIgn/DtxrEsi++2Pt8jywOYrPyBvlSyUuIerBY8wXjhz+ZAIwUcY+NwoTkY4zjAGZWApvZVDP37F5UgNrAx9wnIjI2uFocgTnoLqlWdYj2YsrBnoBLUaZFEpzuzLm8zrRf+m4HLdL1f/Q20HkyZ0ArK1NMZPJoTQTyzpkCfAQmbwvMVeyR7XsFf/0etB1NG/hj4w57JlYqrwg/z8K/sfQ6EOdp5fkjerQycLTg3Q60HU0Yokny90cf+GItRUGAyND352vISB8U6HX/haAdSFlYWjDVNjvAYGQ09We7Y8uN/DsBJADbnbaOW/BZF82/klleZE3sPwG4lK0dtE2xRnnEcKaH8wi52sBhq+QQvsWLNwdwAc+Umkzx6cHknHTF251TQEZyolDmz6RyH6YvycZjwsXFx6wFVxQlIntk0bDLfBY/hts/PsI129qve3Tn/BhZtKSNrCSdLXWE9oKqxf+Ami1UyklrfyPoFKzI/O2fJSr5B1oOqIhtzdxjrBVMWm8iOtUfJd5CSitQZgKusB1VlqIzyRQeLJ2ajndRvK1KkcoZCEtkS1oOqOvNwBNZa0DJGu48VgqrAwQrzd4AWu14AAANQSURBVJL1oBJfrX2Xyugqu73O7dqrwm4KPxDjAPSzHljiqyzEd+jWC8yrTeLrr5jKdIvyQ6WA8R7WA0vUZwsArzhYcF5sDqfvxl75mJf9lDQQb7ceWKJ5zfvPHCxA63N+lA0kHav7LGY9uETzLMEZhNYqOVZn/dI2lWgQFL5CcU53tx5gojWWZgEQ6XZk3u09lqWqAlSL/7ziXN5sPcCEzI7gXNZtyypiX3C/+zIV83Rmd+Xj3qiK5EpUBhKB3NtJG6iQ3WVXQvkam2o0lulon6V033IzmLPhRjtYpNr2OTfinLsEJeKHBBCQbQfwA+vBJsIxhJuLPuVAfUc7QLhrpLn/G3PRUoh5OtV6sAk7FuZa/9+weMSMQFoDbwZ0PlRLsT3iaSQ7MqCTvLzkcZNETuZiIY+duPHolSwbNpYLQ/Jsw98F8AR38KFahh9zrwK6xgLnMIT60GuOYJhDWau5uI3Wk4HngyL+Pa0Hn4iLuTlJZBBr53U0ijOskDOSfFrgjz5j/cE/sOx4m7Fox/lGJd/3lrh7VCIyzjVYAB0LXkiVeesAC6Ivb/HPZCUlqzGPVNR8TCRa4nTDBVGzmXxkOY+DhwML3CT05vTknTlld6STTM3bOxzBEglXHOfwVmIOZxo+xMVGl3Jz0lO5MeYpvIO5jFti38dyXF86ePbOdnXFqiQTEbJX0kJUsXNStD8RC5tFpC7s3T7nPgyJRFQsw4lK1gsoZhvLNx2JRLS1DFc6WEgx2gMA+lu/wERCgj0qVtlYdMtPCVYpwSdRKhZz0jLcs1EmYaroS5QWimLvC+AjB4vNk83gK8n0q5+oTAETFbFUvU8C5Uz8ucT9DROJhgzm5JusgvZvABtav4BEwkvDlKqoHj3FfQBSUk8i0YlNANztYJFq2D3cCyKRSDRxNLgQwKcOFm5Rnb4rWEMhkUjkZF6+NbjXaXFOV0aBzX9xTQSVDycSCQEWB3AoHxE8lOV2vsa7C8DhAJa1nqhEouz0Y43AczmoptFbr5FRteMzrAa0Dac8JxIJw6PCxizBfRlrII4XWOhfsi7iI5y3MIxlwGKXK08kKkEfDihuyldvB3LG3bGs8kPSXicCOAbAUAD7ANiFnQlt5ZP4BuLgfwBeJXXDnzoa8AAAAABJRU5ErkJggg==;fontFamily=Schoolbell;container=0;" parent="1" vertex="1">
          <mxGeometry x="590" y="100" width="19.69" height="20" as="geometry" />
        </mxCell>
        <mxCell id="sAz0puc__kFBI9K-MMxM-6" value="xAI" style="rounded=1;whiteSpace=wrap;html=1;fontFamily=Schoolbell;sketch=1;curveFitting=1;jiggle=2;container=0;" parent="1" vertex="1">
          <mxGeometry x="580.01" y="40" width="170" height="40" as="geometry" />
        </mxCell>
        <mxCell id="sAz0puc__kFBI9K-MMxM-20" value="" style="shape=image;verticalLabelPosition=bottom;labelBackgroundColor=default;verticalAlign=top;aspect=fixed;imageAspect=0;editableCssRules=.*;image=data:image/svg+xml,PHN2ZyB4bWxuczp4bGluaz0iaHR0cDovL3d3dy53My5vcmcvMTk5OS94bGluayIgeG1sbnM9Imh0dHA6Ly93d3cudzMub3JnLzIwMDAvc3ZnIiB4bWw6c3BhY2U9InByZXNlcnZlIiBzdHlsZT0iZW5hYmxlLWJhY2tncm91bmQ6bmV3IDAgMCA4NDEuODkgNTk1LjI4OyIgdmlld0JveD0iMjAxLjYxMDAwMDYxMDM1MTU2IDU2LjkwOTk5OTg0NzQxMjExIDQzOC42NzAwNDM5NDUzMTI1IDQ4MS40NDk5ODE2ODk0NTMxIiB5PSIwcHgiIHg9IjBweCIgaWQ9ImthdG1hbl8xIiB2ZXJzaW9uPSIxLjEiIHdpZHRoPSI0MzguNjcwMDQzOTQ1MzEyNSIgaGVpZ2h0PSI0ODEuNDQ5OTgxNjg5NDUzMSI+JiN4YTs8Zz4mI3hhOwk8cG9seWdvbiBwb2ludHM9IjU1Ny4wOSwyMTEuOTkgNTY1LjQsNTM4LjM2IDYzMS45Niw1MzguMzYgNjQwLjI4LDkzLjE4Ii8+JiN4YTsJPHBvbHlnb24gcG9pbnRzPSI2NDAuMjgsNTYuOTEgNTM4LjcyLDU2LjkxIDM3OS4zNSwyODQuNTMgNDMwLjEzLDM1Ny4wNSIvPiYjeGE7CTxwb2x5Z29uIHBvaW50cz0iMjAxLjYxLDUzOC4zNiAzMDMuMTcsNTM4LjM2IDM1My45Niw0NjUuODQgMzAzLjE3LDM5My4zMSIvPiYjeGE7CTxwb2x5Z29uIHBvaW50cz0iMjAxLjYxLDIxMS45OSA0MzAuMTMsNTM4LjM2IDUzMS42OSw1MzguMzYgMzAzLjE3LDIxMS45OSIvPiYjeGE7PC9nPiYjeGE7PC9zdmc+;fontFamily=Schoolbell;container=0;" parent="1" vertex="1">
          <mxGeometry x="590" y="49.04" width="20" height="21.91" as="geometry" />
        </mxCell>
      </root>
    </mxGraphModel>
  </diagram>
</mxfile>
